<svg xmlns="http://www.w3.org/2000/svg" viewBox="0 0 1200 600">
  <!-- Background gradient -->
  <defs>
    <linearGradient id="bg-gradient" x1="0%" y1="0%" x2="100%" y2="100%">
      <stop offset="0%" stop-color="#1a237e" />
      <stop offset="100%" stop-color="#3949ab" />
    </linearGradient>
    
    <!-- World map pattern -->
    <pattern id="worldPattern" patternUnits="userSpaceOnUse" width="600" height="300" patternTransform="scale(2) translate(0,0)">
      <path d="M120,40 C150,20 180,50 200,80 C220,110 250,130 280,110 C310,90 330,60 360,70 C390,80 410,120 440,130 C470,140 500,120 520,90 C540,60 560,30 590,40 C620,50 640,90 660,120" 
            fill="none" stroke="#ffffff" stroke-width="0.5" stroke-opacity="0.3" />
      <path d="M40,160 C70,140 100,170 120,200 C140,230 170,250 200,230 C230,210 250,180 280,190 C310,200 330,240 360,250 C390,260 420,240 440,210 C460,180 480,150 510,160 C540,170 560,210 580,240" 
            fill="none" stroke="#ffffff" stroke-width="0.5" stroke-opacity="0.3" />
    </pattern>
    
    <!-- Abstract circuit pattern for AI representation -->
    <pattern id="circuitPattern" patternUnits="userSpaceOnUse" width="200" height="200" patternTransform="scale(0.5) rotate(45)">
      <path d="M10,10 L50,10 L50,50 L90,50 L90,90 L130,90 L130,130 L170,130 L170,170" 
            fill="none" stroke="#ffffff" stroke-width="1" stroke-opacity="0.2" />
      <path d="M30,30 L70,30 L70,70 L110,70 L110,110 L150,110 L150,150 L190,150" 
            fill="none" stroke="#ffffff" stroke-width="1" stroke-opacity="0.2" />
      <circle cx="50" cy="50" r="5" fill="#ffffff" fill-opacity="0.3" />
      <circle cx="90" cy="90" r="5" fill="#ffffff" fill-opacity="0.3" />
      <circle cx="130" cy="130" r="5" fill="#ffffff" fill-opacity="0.3" />
      <circle cx="170" cy="170" r="5" fill="#ffffff" fill-opacity="0.3" />
    </pattern>
  </defs>
  
  <!-- Main background -->
  <rect x="0" y="0" width="1200" height="600" fill="url(#bg-gradient)" />
  
  <!-- Overlay patterns -->
  <rect x="0" y="0" width="1200" height="600" fill="url(#worldPattern)" />
  <rect x="0" y="0" width="1200" height="600" fill="url(#circuitPattern)" />
  
  <!-- Passport graphic -->
  <g transform="translate(200, 220) scale(0.8)">
    <!-- Passport book -->
    <rect x="0" y="0" width="300" height="200" rx="10" ry="10" fill="#d32f2f" />
    <rect x="15" y="15" width="270" height="170" rx="5" ry="5" fill="#f5f5f5" />
    
    <!-- Passport details -->
    <rect x="30" y="40" width="100" height="120" rx="5" ry="5" fill="#e0e0e0" />
    <rect x="150" y="50" width="120" height="15" rx="2" ry="2" fill="#9e9e9e" />
    <rect x="150" y="80" width="120" height="15" rx="2" ry="2" fill="#9e9e9e" />
    <rect x="150" y="110" width="120" height="15" rx="2" ry="2" fill="#9e9e9e" />
    <rect x="150" y="140" width="60" height="15" rx="2" ry="2" fill="#9e9e9e" />
  </g>
  
  <!-- Visa stamp -->
  <g transform="translate(620, 230) rotate(-15) scale(0.8)">
    <rect x="0" y="0" width="220" height="150" rx="5" ry="5" fill="#f5f5f5" fill-opacity="0.9" stroke="#1565c0" stroke-width="3" />
    <text x="110" y="50" font-family="Arial" font-size="24" text-anchor="middle" fill="#1565c0" font-weight="bold">VISA</text>
    <text x="110" y="80" font-family="Arial" font-size="14" text-anchor="middle" fill="#1565c0">APPROVED</text>
    <rect x="30" y="100" width="160" height="30" rx="2" ry="2" fill="#e0e0e0" />
  </g>
  
  <!-- Abstract brain/circuit representing AI -->
  <g transform="translate(820, 150) scale(0.9)">
    <circle cx="100" cy="100" r="80" fill="none" stroke="#64b5f6" stroke-width="2" stroke-opacity="0.7" />
    <circle cx="100" cy="100" r="60" fill="none" stroke="#64b5f6" stroke-width="2" stroke-opacity="0.7" />
    
    <!-- Brain nodes -->
    <circle cx="70" cy="70" r="10" fill="#64b5f6" fill-opacity="0.9" />
    <circle cx="130" cy="70" r="10" fill="#64b5f6" fill-opacity="0.9" />
    <circle cx="70" cy="130" r="10" fill="#64b5f6" fill-opacity="0.9" />
    <circle cx="130" cy="130" r="10" fill="#64b5f6" fill-opacity="0.9" />
    <circle cx="100" cy="60" r="8" fill="#64b5f6" fill-opacity="0.9" />
    <circle cx="100" cy="140" r="8" fill="#64b5f6" fill-opacity="0.9" />
    <circle cx="60" cy="100" r="8" fill="#64b5f6" fill-opacity="0.9" />
    <circle cx="140" cy="100" r="8" fill="#64b5f6" fill-opacity="0.9" />
    
    <!-- Neural connections -->
    <line x1="70" y1="70" x2="130" y2="70" stroke="#64b5f6" stroke-width="2" stroke-opacity="0.7" />
    <line x1="70" y1="70" x2="70" y2="130" stroke="#64b5f6" stroke-width="2" stroke-opacity="0.7" />
    <line x1="130" y1="70" x2="130" y2="130" stroke="#64b5f6" stroke-width="2" stroke-opacity="0.7" />
    <line x1="70" y1="130" x2="130" y2="130" stroke="#64b5f6" stroke-width="2" stroke-opacity="0.7" />
    <line x1="100" y1="60" x2="70" y2="70" stroke="#64b5f6" stroke-width="2" stroke-opacity="0.7" />
    <line x1="100" y1="60" x2="130" y2="70" stroke="#64b5f6" stroke-width="2" stroke-opacity="0.7" />
    <line x1="60" y1="100" x2="70" y2="70" stroke="#64b5f6" stroke-width="2" stroke-opacity="0.7" />
    <line x1="60" y1="100" x2="70" y2="130" stroke="#64b5f6" stroke-width="2" stroke-opacity="0.7" />
    <line x1="140" y1="100" x2="130" y2="70" stroke="#64b5f6" stroke-width="2" stroke-opacity="0.7" />
    <line x1="140" y1="100" x2="130" y2="130" stroke="#64b5f6" stroke-width="2" stroke-opacity="0.7" />
    <line x1="100" y1="140" x2="70" y2="130" stroke="#64b5f6" stroke-width="2" stroke-opacity="0.7" />
    <line x1="100" y1="140" x2="130" y2="130" stroke="#64b5f6" stroke-width="2" stroke-opacity="0.7" />
    
    <!-- Glowing effect -->
    <circle cx="100" cy="100" r="90" fill="radial-gradient(rgba(100, 181, 246, 0.3), rgba(100, 181, 246, 0))" />
  </g>
  
  <!-- Abstract document shapes -->
  <g transform="translate(400, 370) rotate(10) scale(0.7)">
    <rect x="0" y="0" width="150" height="180" rx="5" ry="5" fill="#ffffff" fill-opacity="0.7" />
    <rect x="15" y="20" width="120" height="15" rx="2" ry="2" fill="#9e9e9e" />
    <rect x="15" y="45" width="120" height="15" rx="2" ry="2" fill="#9e9e9e" />
    <rect x="15" y="70" width="120" height="15" rx="2" ry="2" fill="#9e9e9e" />
    <rect x="15" y="95" width="60" height="15" rx="2" ry="2" fill="#9e9e9e" />
    <rect x="15" y="130" width="120" height="35" rx="2" ry="2" fill="#e0e0e0" />
  </g>
  
  <!-- Subtle particles -->
  <g opacity="0.5">
    <circle cx="200" cy="150" r="3" fill="#ffffff" />
    <circle cx="300" cy="100" r="2" fill="#ffffff" />
    <circle cx="500" cy="200" r="3" fill="#ffffff" />
    <circle cx="700" cy="150" r="2" fill="#ffffff" />
    <circle cx="900" cy="250" r="3" fill="#ffffff" />
    <circle cx="1000" cy="300" r="2" fill="#ffffff" />
    <circle cx="400" cy="450" r="3" fill="#ffffff" />
    <circle cx="600" cy="500" r="2" fill="#ffffff" />
    <circle cx="800" cy="400" r="3" fill="#ffffff" />
    <circle cx="1100" cy="450" r="2" fill="#ffffff" />
    <circle cx="250" cy="350" r="2" fill="#ffffff" />
    <circle cx="350" cy="250" r="2" fill="#ffffff" />
    <circle cx="450" cy="150" r="2" fill="#ffffff" />
    <circle cx="550" cy="350" r="2" fill="#ffffff" />
    <circle cx="650" cy="250" r="2" fill="#ffffff" />
    <circle cx="750" cy="450" r="2" fill="#ffffff" />
    <circle cx="850" cy="350" r="2" fill="#ffffff" />
    <circle cx="950" cy="150" r="2" fill="#ffffff" />
    <circle cx="1050" cy="250" r="2" fill="#ffffff" />
  </g>
</svg>
