<?xml version="1.0" encoding="UTF-8"?>
<!DOCTYPE svg PUBLIC "-//W3C//DTD SVG 1.1//EN" "http://www.w3.org/Graphics/SVG/1.1/DTD/svg11.dtd">
<svg xmlns="http://www.w3.org/2000/svg" version="1.1" width="80px" height="80px" style="shape-rendering:geometricPrecision; text-rendering:geometricPrecision; image-rendering:optimizeQuality; fill-rule:evenodd; clip-rule:evenodd" xmlns:xlink="http://www.w3.org/1999/xlink">
<g><path style="opacity:1" fill="#e5f1ff" d="M -0.5,-0.5 C 26.1667,-0.5 52.8333,-0.5 79.5,-0.5C 79.5,26.1667 79.5,52.8333 79.5,79.5C 52.8333,79.5 26.1667,79.5 -0.5,79.5C -0.5,52.8333 -0.5,26.1667 -0.5,-0.5 Z"/></g>
<g><path style="opacity:1" fill="#3862ff" d="M 36.5,34.5 C 37.5,34.5 38.5,34.5 39.5,34.5C 38.8333,39.5 38.1667,44.5 37.5,49.5C 36.5,49.5 35.5,49.5 34.5,49.5C 35.4651,45.5214 35.9651,41.5214 36,37.5C 32.9755,41.7268 30.8089,46.3935 29.5,51.5C 28.1906,48.3478 28.5239,45.3478 30.5,42.5C 29.336,42.8346 28.0026,42.8346 26.5,42.5C 28.3279,41.2048 30.3279,40.2048 32.5,39.5C 33.8569,37.8144 35.1902,36.1477 36.5,34.5 Z"/></g>
<g><path style="opacity:1" fill="#3662ff" d="M 49.5,34.5 C 50.5,34.5 51.5,34.5 52.5,34.5C 51.8333,39.5 51.1667,44.5 50.5,49.5C 49.5,49.5 48.5,49.5 47.5,49.5C 48.4651,45.5214 48.9651,41.5214 49,37.5C 45.9755,41.7268 43.8089,46.3935 42.5,51.5C 41.1906,48.3478 41.5239,45.3478 43.5,42.5C 43.3333,42.1667 43.1667,41.8333 43,41.5C 42.1627,43.0074 40.9961,43.5074 39.5,43C 41.1352,41.2518 43.1352,40.0851 45.5,39.5C 46.8569,37.8144 48.1902,36.1477 49.5,34.5 Z"/></g>
</svg>
