<?xml version="1.0" standalone="no"?>
<!DOCTYPE svg PUBLIC "-//W3C//DTD SVG 20010904//EN"
 "http://www.w3.org/TR/2001/REC-SVG-20010904/DTD/svg10.dtd">
<svg version="1.0" xmlns="http://www.w3.org/2000/svg"
 width="1024.000000pt" height="1024.000000pt" viewBox="0 0 1024.000000 1024.000000"
 preserveAspectRatio="xMidYMid meet">

<g transform="translate(0.000000,1024.000000) scale(0.100000,-0.100000)"
fill="#000000" stroke="none">
<path d="M0 10161 c0 -73 10 -102 23 -68 4 9 8 8 17 -3 9 -11 13 -12 17 -2 2
6 18 12 34 12 16 0 29 5 29 10 0 6 9 10 21 10 15 0 20 5 17 23 -2 15 4 26 22
34 25 12 25 12 -5 6 -29 -5 -29 -5 -10 10 11 9 29 17 39 17 11 0 17 2 15 5 -7
6 -71 15 -151 21 l-68 5 0 -80z"/>
<path d="M180 10120 c0 -5 -7 -10 -15 -10 -8 0 -15 -4 -15 -10 0 -5 6 -10 14
-10 8 0 16 -3 19 -7 2 -5 2 -2 0 6 -2 7 2 20 8 27 8 10 8 14 0 14 -6 0 -11 -4
-11 -10z"/>
<path d="M376 10066 c7 -17 64 -40 64 -25 0 5 -9 9 -20 9 -11 0 -20 7 -20 15
0 8 -7 15 -15 15 -8 0 -12 -6 -9 -14z"/>
<path d="M70 10060 c0 -5 9 -10 20 -10 11 0 20 5 20 10 0 6 -9 10 -20 10 -11
0 -20 -4 -20 -10z"/>
<path d="M150 10049 c0 -5 5 -7 10 -4 6 3 10 8 10 11 0 2 -4 4 -10 4 -5 0 -10
-5 -10 -11z"/>
<path d="M331 10016 c-15 -18 10 -29 45 -20 l25 6 -27 14 c-32 17 -29 17 -43
0z"/>
<path d="M247 10014 c-12 -13 3 -21 29 -16 19 3 22 7 12 13 -16 10 -32 11 -41
3z"/>
<path d="M165 10000 c3 -5 8 -10 11 -10 2 0 4 5 4 10 0 6 -5 10 -11 10 -5 0
-7 -4 -4 -10z"/>
<path d="M357 9964 c-4 -4 -7 -14 -7 -23 0 -11 3 -12 11 -4 6 6 10 16 7 23 -2
6 -7 8 -11 4z"/>
<path d="M390 9956 c0 -9 5 -16 10 -16 6 0 10 4 10 9 0 6 -4 13 -10 16 -5 3
-10 -1 -10 -9z"/>
<path d="M116 9931 c-4 -7 -5 -15 -2 -18 9 -9 19 4 14 18 -4 11 -6 11 -12 0z"/>
<path d="M6 9859 c-3 -34 -6 -133 -6 -220 0 -135 2 -159 15 -159 8 0 15 -9 15
-20 0 -11 7 -20 15 -20 8 0 15 9 15 20 0 11 -5 20 -11 20 -7 0 -10 12 -7 30 3
17 0 30 -6 30 -6 0 -4 5 4 10 8 5 23 7 33 4 11 -3 17 0 17 10 0 9 5 16 10 16
6 0 10 -7 10 -15 0 -8 8 -15 18 -16 15 0 15 -1 -2 -8 -15 -6 -16 -9 -5 -13 8
-3 19 0 26 7 8 9 6 15 -8 26 -25 18 -24 39 2 39 11 0 17 5 14 10 -3 6 2 10 12
10 15 0 16 2 3 10 -16 10 -15 11 15 29 18 10 16 10 -9 5 -21 -5 -27 -4 -22 5
4 6 16 11 27 11 13 0 19 7 19 21 0 11 -4 18 -9 15 -12 -8 -22 20 -14 41 4 11
3 14 -5 9 -7 -4 -12 -25 -12 -47 0 -36 -2 -39 -29 -39 -37 0 -55 22 -47 60 4
22 2 30 -9 30 -8 0 -15 5 -15 10 0 6 7 10 16 10 11 0 14 5 10 16 -3 9 -6 20
-6 25 0 5 -11 9 -25 9 -22 0 -25 4 -25 40 0 62 -16 47 -24 -21z m64 -239 c0
-11 -4 -20 -10 -20 -5 0 -10 9 -10 20 0 11 5 20 10 20 6 0 10 -9 10 -20z"/>
<path d="M240 9900 c0 -11 7 -20 15 -20 13 0 14 4 5 20 -6 11 -13 20 -15 20
-3 0 -5 -9 -5 -20z"/>
<path d="M40 9896 c0 -8 9 -18 20 -21 11 -3 20 -13 20 -21 0 -8 5 -14 10 -14
6 0 10 -9 10 -20 0 -11 6 -20 14 -20 17 0 31 33 17 38 -6 2 -11 12 -11 23 0
11 -7 19 -16 19 -8 0 -22 7 -30 15 -19 19 -34 19 -34 1z"/>
<path d="M150 9900 c0 -5 4 -10 9 -10 5 0 18 -3 28 -7 17 -6 17 -6 1 10 -18
19 -38 22 -38 7z"/>
<path d="M164 9855 c-18 -14 -18 -14 9 -15 15 0 27 4 27 9 0 18 -17 20 -36 6z"/>
<path d="M270 9829 c0 -5 8 -9 18 -9 16 -1 16 -1 -1 -11 -21 -13 -13 -29 15
-29 13 0 18 5 15 14 -3 8 -1 16 4 18 5 2 -4 8 -21 15 -16 6 -30 7 -30 2z"/>
<path d="M368 9833 c6 -2 18 -2 25 0 6 3 1 5 -13 5 -14 0 -19 -2 -12 -5z"/>
<path d="M178 9803 c7 -3 16 -2 19 1 4 3 -2 6 -13 5 -11 0 -14 -3 -6 -6z"/>
<path d="M360 9800 c0 -5 9 -10 20 -10 11 0 20 5 20 10 0 6 -9 10 -20 10 -11
0 -20 -4 -20 -10z"/>
<path d="M187 9753 c-15 -15 -5 -23 26 -22 l32 2 -30 5 -30 5 30 7 c29 7 29 8
4 9 -14 0 -29 -2 -32 -6z"/>
<path d="M260 9740 c0 -5 7 -10 15 -10 8 0 15 5 15 10 0 6 -7 10 -15 10 -8 0
-15 -4 -15 -10z"/>
<path d="M310 9719 c0 -5 5 -7 10 -4 6 3 10 8 10 11 0 2 -4 4 -10 4 -5 0 -10
-5 -10 -11z"/>
<path d="M105 9710 c4 -6 11 -8 16 -5 14 9 11 15 -7 15 -8 0 -12 -5 -9 -10z"/>
<path d="M260 9701 c0 -12 6 -21 15 -21 8 0 15 4 15 9 0 5 -7 14 -15 21 -13
10 -15 9 -15 -9z"/>
<path d="M360 9680 c0 -5 4 -10 9 -10 6 0 13 5 16 10 3 6 -1 10 -9 10 -9 0
-16 -4 -16 -10z"/>
<path d="M75 9530 c3 -5 8 -10 11 -10 2 0 4 5 4 10 0 6 -5 10 -11 10 -5 0 -7
-4 -4 -10z"/>
<path d="M70 9371 c0 -6 5 -13 10 -16 6 -3 10 1 10 9 0 9 -4 16 -10 16 -5 0
-10 -4 -10 -9z"/>
<path d="M11 9320 c0 -8 4 -22 9 -30 12 -18 12 -2 0 25 -6 13 -9 15 -9 5z"/>
<path d="M50 9271 c0 -6 4 -13 10 -16 6 -3 7 1 4 9 -7 18 -14 21 -14 7z"/>
<path d="M25 9150 c3 -5 8 -10 11 -10 2 0 4 5 4 10 0 6 -5 10 -11 10 -5 0 -7
-4 -4 -10z"/>
<path d="M7500 8483 c0 -5 21 -17 47 -27 58 -24 166 -130 212 -209 45 -77 60
-144 70 -320 4 -81 10 -149 12 -150 2 -2 31 -18 64 -36 33 -18 80 -50 105 -71
l45 -37 -3 191 c-3 218 -16 298 -66 402 -42 89 -131 185 -199 218 -29 13 -79
29 -111 35 -68 13 -176 15 -176 4z"/>
<path d="M6805 8410 c-82 -10 -222 -25 -310 -34 -390 -40 -565 -67 -565 -85 0
-5 20 -19 44 -32 47 -25 56 -24 181 10 22 6 126 15 230 20 105 5 206 14 225
20 19 6 73 18 120 27 95 17 207 49 225 64 6 5 29 14 51 19 l39 9 -45 0 c-25 0
-112 -8 -195 -18z"/>
<path d="M5255 8255 c-345 -44 -737 -96 -945 -127 -113 -16 -277 -38 -365 -49
-534 -65 -1015 -147 -1113 -189 -62 -27 -155 -122 -209 -214 -52 -89 -113
-239 -123 -303 -6 -35 -10 -1069 -10 -2637 l0 -2579 37 7 c21 3 126 17 233 31
107 14 263 36 345 49 315 52 488 77 715 106 129 16 271 36 315 44 44 8 112 17
150 21 39 3 147 15 242 26 158 19 174 19 195 5 16 -11 45 -16 98 -16 130 1
314 18 350 33 19 8 85 17 146 20 73 4 129 13 160 25 72 28 132 35 149 18 8 -7
11 -16 8 -20 -12 -12 15 -6 61 15 26 11 62 33 80 49 27 24 48 32 107 40 41 5
155 23 254 40 384 64 646 105 855 135 535 76 676 101 773 140 l58 23 -6 -41
c-10 -63 -73 -215 -115 -277 -63 -93 -186 -188 -247 -191 -14 0 -15 -2 -3 -6
8 -3 36 -21 61 -39 26 -19 54 -34 62 -34 25 0 32 -22 11 -37 -17 -13 -17 -14
11 -8 70 15 178 78 249 146 57 54 83 88 123 166 84 161 101 240 95 436 l-2 78
-42 -31 c-24 -18 -64 -49 -91 -69 -117 -91 -182 -112 -451 -146 -111 -14 -237
-32 -281 -41 -44 -8 -153 -24 -243 -34 -89 -11 -242 -36 -340 -55 -97 -20
-231 -42 -297 -50 -66 -8 -141 -18 -165 -24 -25 -5 -110 -17 -190 -26 -80 -9
-170 -23 -200 -31 -30 -8 -95 -19 -145 -25 -49 -5 -127 -16 -172 -25 -104 -21
-151 -14 -253 37 -59 30 -94 56 -137 104 -76 82 -108 142 -132 246 -19 80 -20
139 -27 1229 -9 1528 -11 1741 -21 2180 -5 214 -5 396 0 424 4 26 6 50 4 53
-17 16 -31 -173 -37 -497 l-7 -365 1 400 2 400 38 119 c56 178 123 302 216
400 l48 51 -54 -2 c-60 -1 -120 12 -148 33 -17 12 -18 18 -9 49 10 32 10 34
-7 25 -23 -12 -60 -59 -60 -75 0 -7 -7 -18 -16 -26 -23 -19 -34 4 -34 78 0 34
-4 65 -10 68 -5 3 -9 23 -9 43 l2 37 7 -40 c5 -29 8 -11 9 66 l1 106 90 13
c105 15 126 7 160 -60 25 -50 25 -86 -1 -129 -11 -18 -18 -35 -16 -37 6 -6
150 25 160 35 7 7 -7 128 -17 138 -5 5 -34 11 -59 12 -15 1 -18 8 -15 44 l3
42 80 7 c44 4 106 9 137 12 54 5 58 4 64 -19 11 -46 2 -59 -49 -69 -42 -8 -48
-12 -43 -30 3 -12 6 -43 6 -70 l0 -49 63 6 c34 3 69 8 77 11 8 3 33 7 55 10
22 2 77 9 123 16 l83 12 -6 147 c-4 80 -8 157 -10 171 -1 14 -3 36 -3 50 -1
14 -15 41 -32 60 -16 19 -27 27 -24 18 3 -10 11 -18 17 -18 7 0 7 -4 -1 -12
-6 -6 -13 -10 -15 -7 -33 48 -82 99 -95 100 -11 0 -12 3 -4 6 19 8 14 19 -10
21 -21 1 -84 1 -175 0 -18 0 -33 -4 -33 -9 0 -5 5 -9 10 -9 6 0 10 -5 10 -11
0 -6 7 -17 15 -26 9 -8 13 -18 10 -22 -4 -3 -13 2 -20 13 -13 17 -15 17 -29 3
-9 -9 -16 -21 -16 -27 0 -8 -9 -10 -22 -7 l-23 6 23 -19 c12 -10 22 -23 22
-29 0 -6 5 -11 10 -11 14 0 12 28 -2 32 -9 3 -8 10 5 22 10 10 21 15 25 12 3
-4 0 -11 -8 -17 -13 -8 -13 -10 0 -19 12 -7 12 -12 2 -22 -19 -19 -14 -32 19
-51 18 -10 29 -20 25 -24 -3 -3 -14 2 -25 11 -18 17 -20 17 -29 0 -9 -16 -12
-15 -35 12 -14 16 -29 25 -34 21 -4 -5 9 -24 30 -44 21 -19 36 -37 33 -40 -3
-3 -24 14 -45 38 -22 24 -43 40 -47 36 -4 -3 -20 14 -35 38 -27 42 -49 58 -49
35 0 -5 5 -10 12 -10 6 0 8 -3 5 -6 -4 -4 -24 4 -44 18 -107 70 -140 80 -160
44 l-12 -21 -9 24 -9 25 -7 -25 c-4 -14 -9 -19 -13 -11 -2 6 -9 12 -14 12 -6
0 -7 -5 -3 -12 4 -6 1 -16 -7 -22 -25 -20 -51 -74 -29 -61 6 4 5 -5 -2 -19 -6
-14 -16 -26 -21 -26 -5 0 -4 7 3 15 8 9 8 15 2 15 -6 0 -17 7 -26 15 -14 14
-16 12 -24 -17 -5 -18 -8 -35 -6 -37 2 -2 18 -4 36 -5 34 -2 47 -26 18 -33
-13 -4 -13 -3 0 6 8 5 11 13 7 17 -4 4 -15 1 -23 -8 -15 -14 -13 -18 14 -45
l30 -29 -19 -24 c-19 -23 -20 -23 -9 -2 6 12 8 27 4 33 -4 6 -13 -2 -21 -20
-9 -17 -19 -31 -24 -31 -5 0 1 16 13 36 18 30 19 37 7 45 -20 13 -26 11 -33
-8 -6 -15 -8 -15 -16 -3 -5 8 -12 11 -16 7 -4 -4 0 -15 9 -24 16 -16 18 -16
32 2 14 19 15 18 4 -7 -13 -30 -21 -28 -62 17 -14 15 -20 17 -26 6 -6 -10 -10
-10 -16 -1 -4 6 -13 9 -20 7 -8 -4 -12 4 -11 21 1 18 7 27 18 27 9 0 28 11 42
24 33 31 33 23 1 -15 -26 -31 -17 -47 11 -19 9 9 23 14 31 11 9 -4 13 -1 10 6
-2 7 -9 12 -15 11 -7 -2 -9 4 -5 13 7 20 -18 38 -30 21 -6 -8 -7 -6 -3 6 3 9
1 17 -4 17 -6 0 -10 5 -10 11 0 5 5 7 12 3 8 -5 9 -2 5 9 -3 10 -2 17 3 17 5
0 6 8 3 17 -5 14 -8 12 -16 -10 l-9 -27 -17 22 c-17 20 -57 36 -46 18 7 -11
-5 -40 -17 -40 -13 0 -39 28 -30 33 4 2 0 2 -8 -1 -8 -3 -31 -5 -50 -5 -30 -1
-35 -5 -37 -26 -1 -24 0 -24 12 -8 8 12 15 14 20 8 9 -15 25 -14 21 2 -1 6 -1
9 2 4 2 -4 13 -12 25 -19 22 -11 22 -11 3 11 -11 11 -15 21 -10 21 15 -1 57
-40 51 -47 -4 -3 1 -13 11 -21 10 -8 5 -7 -11 3 -16 9 -31 14 -34 11 -3 -3
-12 2 -20 12 -8 9 -12 12 -8 5 3 -7 -2 -24 -11 -39 -14 -21 -15 -27 -4 -34 15
-10 38 -3 63 18 9 8 17 10 17 5 0 -6 -7 -13 -15 -17 -8 -3 -15 -10 -15 -16 0
-7 6 -7 21 0 11 7 23 9 27 6 3 -3 0 -6 -8 -6 -9 0 -10 -3 -1 -13 11 -14 6 -27
-10 -27 -5 0 -5 7 -2 17 4 11 3 14 -6 9 -6 -4 -19 -2 -27 5 -27 22 -26 0 1
-25 23 -22 26 -28 15 -41 -7 -9 -10 -19 -6 -22 4 -4 11 -1 16 7 5 8 12 11 17
7 4 -5 1 -12 -7 -17 -12 -7 -11 -13 7 -32 22 -23 22 -24 3 -24 -11 0 -39 18
-62 39 -24 21 -36 35 -28 31 8 -4 25 -16 37 -27 39 -35 33 -14 -8 31 -43 48
-46 54 -24 46 20 -8 19 1 -1 25 -17 19 -44 18 -44 -1 0 -6 8 -7 17 -4 14 6 14
4 -2 -14 -17 -18 -17 -23 -5 -31 11 -8 9 -9 -7 -4 -14 4 -23 2 -23 -4 0 -6 4
-11 10 -11 5 0 7 -7 4 -15 -4 -8 -1 -15 5 -15 6 0 11 5 11 12 0 8 6 6 17 -5
14 -14 15 -19 4 -29 -10 -11 -11 -10 -6 5 4 10 2 17 -4 17 -6 0 -11 -5 -11
-12 0 -9 -3 -9 -11 -1 -6 6 -17 9 -24 7 -6 -3 -18 2 -25 11 -8 10 -9 15 -1 15
6 0 11 -5 11 -12 0 -9 3 -9 12 0 10 10 10 15 -2 22 -13 9 -13 11 0 19 8 6 11
13 7 17 -3 4 -13 1 -22 -6 -20 -17 -19 -3 1 17 13 14 17 14 24 2 5 -7 12 -10
16 -7 3 4 -1 14 -10 23 -17 17 -18 16 -67 -27 -10 -10 -19 -14 -19 -10 0 5 9
17 20 27 13 11 18 25 14 37 -3 10 0 18 6 18 6 0 8 -4 5 -10 -3 -5 -1 -10 5
-10 7 0 9 7 6 16 -3 9 -6 18 -6 20 0 3 -4 3 -10 -1 -5 -3 -7 8 -5 27 2 18 0
40 -5 48 -8 12 -10 11 -10 -7 0 -16 -4 -21 -15 -17 -8 4 -15 1 -15 -6 0 -7 -7
-4 -17 6 -10 10 -19 12 -21 6 -2 -6 -9 -9 -16 -6 -9 3 -13 -5 -13 -26 0 -16 4
-30 9 -30 4 0 8 5 8 10 0 6 5 10 12 10 6 0 3 -9 -8 -21 -10 -11 -20 -16 -22
-10 -7 22 -23 10 -17 -11 6 -23 6 -23 -10 -3 -15 19 -17 19 -29 3 -19 -26 -30
-22 -12 4 20 28 20 39 2 32 -7 -3 -16 2 -19 10 -8 19 22 10 40 -12 7 -9 16
-12 20 -9 4 4 1 13 -5 19 -7 7 -12 16 -12 22 0 5 6 1 14 -10 8 -10 18 -15 23
-11 12 12 -21 33 -49 31 -33 -2 -88 -24 -88 -35 0 -5 -5 -9 -11 -9 -6 0 -9 7
-5 15 3 8 1 15 -4 15 -6 0 -10 -4 -10 -10 0 -5 -6 -7 -14 -4 -8 3 -16 -2 -19
-13 -4 -15 -5 -15 -6 -2 0 9 -8 19 -16 23 -19 7 -19 1 2 -30 16 -25 18 -25 30
-8 7 10 16 14 20 10 5 -4 -2 -16 -15 -26 -12 -10 -18 -21 -13 -24 5 -4 12 0
15 6 5 10 7 10 12 -1 4 -8 22 -29 41 -47 30 -29 32 -35 21 -54 -7 -11 -20 -20
-28 -20 -11 1 -9 6 8 20 12 10 18 21 13 25 -16 9 -51 -32 -44 -52 3 -11 -3 -7
-15 9 -12 14 -22 30 -22 35 0 4 5 1 10 -7 8 -13 12 -12 31 7 20 19 20 23 6 37
-8 9 -17 21 -20 28 -3 10 -10 8 -25 -5 -20 -18 -20 -18 -15 2 3 12 1 21 -6 21
-6 0 -11 -4 -11 -10 0 -5 -5 -10 -12 -10 -6 0 -3 9 7 20 10 11 15 23 12 27 -4
4 -13 -2 -21 -12 -9 -13 -15 -15 -20 -6 -4 6 0 14 8 17 22 9 20 21 -6 35 -21
11 -22 11 -9 -5 12 -14 12 -18 -5 -31 -19 -13 -19 -14 1 -29 11 -8 16 -15 10
-15 -12 0 -65 45 -65 55 0 3 7 1 15 -6 22 -18 46 4 26 23 -11 10 -13 10 -7 0
10 -18 -4 -16 -26 4 -18 16 -18 16 -12 -1 6 -15 3 -17 -15 -11 -14 4 -21 3
-19 -5 2 -7 -3 -15 -11 -18 -8 -2 -11 0 -7 6 3 6 2 13 -3 16 -10 6 -25 -43
-16 -52 3 -3 5 0 5 7 0 8 7 11 15 7 8 -3 19 2 24 12 5 9 13 13 18 9 4 -5 0
-15 -10 -22 -17 -12 -17 -14 5 -32 13 -10 32 -30 43 -43 l20 -25 -25 20 c-13
11 -35 30 -48 43 -22 21 -42 29 -42 16 0 -3 14 -19 31 -35 18 -16 29 -32 26
-36 -3 -3 -18 9 -33 26 -21 26 -29 29 -41 19 -9 -7 -17 -8 -21 -2 -11 15 -34
16 -44 2 -6 -9 -7 -6 -3 8 4 16 -1 26 -19 38 -31 20 -37 20 -30 2 3 -8 1 -17
-4 -20 -5 -3 -9 2 -8 11 0 9 -5 18 -13 21 -8 2 -11 0 -8 -5 3 -5 -3 -9 -13 -9
-10 0 -17 3 -15 7 3 3 -9 6 -24 5 -16 -1 -26 -5 -23 -10 3 -5 -2 -7 -11 -3 -9
3 -19 2 -22 -3 -4 -6 -1 -10 5 -10 6 0 8 -5 4 -11 -4 -8 -11 -4 -19 11 -8 16
-14 19 -20 11 -4 -7 -13 -10 -19 -8 -7 3 -19 1 -27 -3 -8 -5 -19 -4 -28 3 -12
10 -14 9 -8 -6 5 -12 3 -16 -5 -11 -23 14 -122 11 -137 -4 -10 -10 -16 -11
-19 -3 -2 6 -8 8 -14 5 -5 -3 -2 -15 9 -27 10 -12 2 -8 -16 8 -23 20 -32 24
-28 13 7 -21 -3 -23 -22 -5 -11 10 -13 9 -9 -3 4 -10 0 -16 -12 -16 -10 0 -16
4 -14 8 3 4 -6 7 -20 6 -13 -1 -22 -6 -19 -11 3 -5 -4 -6 -17 -2 -15 5 -20 4
-16 -4 4 -6 3 -11 -3 -11 -5 0 -12 6 -14 13 -4 9 -8 9 -15 -2 -6 -8 -17 -11
-27 -8 -13 6 -15 3 -10 -16 4 -15 3 -18 -3 -9 -10 15 -76 21 -89 8 -4 -4 -1
-11 7 -16 9 -6 10 -10 3 -10 -6 0 -15 5 -19 11 -4 7 -20 8 -43 4 -20 -4 -43
-8 -51 -8 -8 0 -18 -5 -22 -11 -5 -7 -11 -8 -15 -1 -5 6 -14 10 -22 10 -8 0
-16 6 -19 13 -2 8 2 10 13 6 9 -4 20 -2 24 4 4 6 54 20 111 31 108 20 134 25
257 42 39 5 82 12 94 14 13 3 41 7 64 10 22 3 47 8 56 11 31 9 394 52 402 47
4 -2 7 0 7 4 0 5 10 9 23 9 12 0 58 6 102 12 44 7 96 14 115 17 19 3 46 7 60
10 14 3 77 12 140 20 63 9 153 22 200 30 111 18 143 23 215 30 33 3 76 8 95
10 19 3 71 7 115 11 44 3 82 8 85 9 3 2 26 6 50 9 25 4 56 9 70 11 14 3 48 7
75 10 28 3 86 10 130 15 148 18 233 9 262 -29 8 -11 12 -12 13 -3 0 6 7 12 16
12 31 0 9 34 -38 58 -65 34 -133 35 -353 7z m257 -139 c7 4 8 2 4 -5 -4 -6
-11 -9 -16 -6 -4 3 -13 -2 -19 -9 -8 -10 -9 -16 -1 -21 5 -3 10 -1 10 6 0 7 3
9 6 6 4 -4 1 -13 -6 -22 -11 -13 -15 -11 -33 13 -12 15 -24 29 -28 32 -9 8 -7
40 3 34 4 -3 8 0 8 6 0 7 14 0 31 -14 17 -14 36 -23 41 -20z m-119 4 c3 0 3 7
0 17 -4 11 -3 14 5 9 14 -8 15 -16 3 -35 -7 -10 -12 -10 -30 5 -11 10 -21 23
-21 28 0 5 8 2 18 -7 10 -10 21 -17 25 -17z m122 12 c-3 -3 -11 0 -18 7 -9 10
-8 11 6 5 10 -3 15 -9 12 -12z m92 -92 c25 -26 35 -32 41 -22 7 10 11 10 22
-3 7 -8 10 -18 6 -22 -3 -3 -6 -1 -6 5 0 7 -4 12 -10 12 -5 0 -10 -6 -10 -13
0 -18 -38 -62 -47 -54 -3 4 4 16 16 26 21 19 21 48 0 36 -5 -4 -9 -1 -9 6 0 6
-8 19 -18 28 -10 9 -26 27 -35 41 -9 13 -17 19 -17 13 0 -6 -7 -19 -16 -28
-13 -12 -14 -19 -4 -30 16 -19 3 -20 -15 -2 -11 12 -9 18 11 42 13 15 24 33
24 39 0 6 8 -1 17 -14 9 -14 32 -41 50 -60z m-582 50 c47 -24 85 -56 85 -71 0
-7 -8 -3 -17 8 -21 23 -113 76 -113 65 0 -15 22 -30 36 -25 8 3 14 0 14 -6 0
-18 -28 -12 -50 11 -18 19 -17 29 5 38 1 0 18 -9 40 -20z m495 -98 c0 -2 -9 0
-20 3 -11 4 -20 2 -20 -4 0 -6 5 -11 10 -11 6 0 10 -6 10 -14 0 -8 5 -16 10
-18 6 -2 2 -13 -9 -24 -14 -16 -17 -24 -8 -33 8 -8 8 -11 -1 -11 -7 0 -12 5
-12 11 0 5 -5 7 -12 3 -8 -5 -4 -13 13 -27 22 -17 22 -20 6 -31 -9 -7 -14 -15
-11 -18 2 -3 -3 -8 -12 -12 -15 -6 -15 -4 1 20 14 22 15 28 4 35 -8 5 -14 14
-14 21 -1 7 -7 24 -14 38 l-14 25 22 -19 c11 -11 24 -16 29 -11 4 4 1 10 -5
12 -7 3 -13 9 -13 15 0 6 6 5 15 -2 22 -18 30 -5 12 20 -13 19 -16 19 -30 6
-14 -14 -19 -12 -51 20 -34 34 -35 37 -19 50 16 12 16 15 3 23 -13 9 -12 12 5
24 18 14 23 11 72 -37 29 -28 53 -52 53 -54z m-583 54 c-7 -18 -27 -22 -27 -5
0 5 5 7 10 4 6 -3 10 -1 10 4 0 20 -28 11 -35 -11 -4 -17 -8 -19 -12 -9 -8 19
36 56 50 42 5 -5 7 -17 4 -25z m604 1 c-10 -9 -11 -8 -5 6 3 10 9 15 12 12 3
-3 0 -11 -7 -18z m-171 3 c0 -5 -4 -10 -10 -10 -5 0 -10 5 -10 10 0 6 5 10 10
10 6 0 10 -4 10 -10z m-690 -32 c0 6 -4 12 -10 12 -5 0 -10 5 -10 10 0 18 17
10 27 -13 14 -30 11 -69 -5 -75 -7 -2 -10 2 -6 12 5 12 2 15 -12 10 -16 -6
-17 -5 -6 7 16 17 15 26 -4 33 -12 5 -15 2 -10 -11 6 -14 4 -15 -4 -7 -7 7 -9
21 -5 33 l6 21 19 -22 c11 -13 19 -17 20 -10z m321 15 c13 -15 12 -15 -8 -4
-24 12 -29 21 -14 21 5 0 15 -7 22 -17z m62 -3 c9 -11 13 -20 9 -20 -10 1 -42
26 -42 34 0 12 16 6 33 -14z m507 0 c0 -5 -4 -10 -10 -10 -5 0 -10 5 -10 10 0
6 5 10 10 10 6 0 10 -4 10 -10z m-603 -16 c1 -5 -2 -16 -7 -24 -8 -12 -11 -13
-19 -1 -6 10 -10 10 -16 1 -4 -7 -2 -16 5 -20 8 -5 8 -10 2 -14 -11 -7 -25 21
-16 35 3 5 1 9 -5 9 -5 0 -12 -6 -14 -12 -3 -7 -6 -8 -6 -3 0 6 3 16 8 24 7
10 13 11 31 1 25 -13 42 -4 20 11 -13 9 -13 10 -1 7 8 -3 16 -8 18 -14z m73 2
c0 -3 -4 -8 -10 -11 -5 -3 -10 -1 -10 4 0 6 5 11 10 11 6 0 10 -2 10 -4z m93
-11 c-3 -9 -8 -14 -10 -11 -3 3 -2 9 2 15 9 16 15 13 8 -4z m57 -28 c0 -5 -7
-2 -15 7 -8 8 -15 20 -15 27 0 14 29 -20 30 -34z m-772 2 l-1 -31 -18 23 c-14
17 -19 20 -19 8 0 -8 9 -25 19 -36 21 -23 16 -40 -6 -21 -7 6 -17 8 -20 4 -4
-4 -1 -11 6 -15 10 -7 11 -13 1 -31 -6 -12 -14 -19 -17 -16 -3 3 -1 12 6 19 9
11 8 17 -4 27 -14 11 -13 14 2 26 14 11 15 15 5 22 -15 10 -5 42 13 42 7 0 16
-6 18 -12 3 -8 6 -6 6 5 1 9 3 17 5 17 3 0 4 -14 4 -31z m597 3 c-7 -8 -35 7
-35 18 0 6 7 6 20 -2 10 -7 17 -14 15 -16z m535 14 c0 -7 -7 -19 -15 -26 -10
-9 -15 -9 -15 -1 0 6 5 11 11 11 6 0 9 7 5 15 -3 8 -1 15 4 15 6 0 10 -6 10
-14z m-1334 -23 c-10 -10 -19 5 -10 18 6 11 8 11 12 0 2 -7 1 -15 -2 -18z
m597 1 c-7 -20 -19 -17 -19 5 0 11 6 17 13 14 6 -3 9 -11 6 -19z m247 16 c0
-5 -4 -10 -10 -10 -5 0 -10 5 -10 10 0 6 5 10 10 10 6 0 10 -4 10 -10z m68
-30 c18 -22 30 -40 27 -40 -10 0 -55 48 -55 59 0 5 -6 12 -12 14 -7 3 -8 6 -3
6 6 0 25 -17 43 -39z m266 15 c16 -14 26 -28 23 -32 -4 -3 -15 3 -24 14 -10
11 -27 25 -38 31 -14 8 -16 11 -5 12 8 0 28 -11 44 -25z m-247 -7 c-3 -8 -6
-5 -6 6 -1 11 2 17 5 13 3 -3 4 -12 1 -19z m433 7 c11 -13 10 -14 -4 -9 -9 3
-16 10 -16 15 0 13 6 11 20 -6z m-1000 -10 c-26 -14 -36 -13 -27 2 3 5 16 9
29 10 l23 2 -25 -14z m283 0 c-3 -9 -8 -14 -10 -11 -3 3 -2 9 2 15 9 16 15 13
8 -4z m100 -15 c-10 -12 -24 -28 -30 -35 -13 -14 -8 -45 7 -45 4 0 11 -7 14
-16 6 -14 4 -15 -9 -4 -37 31 -38 49 -4 91 17 22 33 38 36 35 2 -2 -4 -14 -14
-26z m105 10 c-11 -16 -10 -23 6 -37 17 -17 18 -17 11 5 -4 14 -2 22 5 22 6 0
9 -4 6 -9 -4 -5 0 -12 6 -15 10 -5 10 -7 1 -12 -16 -7 -17 -44 -2 -44 5 0 7 5
4 10 -3 6 -1 10 4 10 17 0 13 -15 -10 -41 -21 -24 -21 -24 -15 -1 5 13 3 22
-3 22 -6 0 -11 -5 -11 -12 0 -6 -3 -8 -6 -5 -4 4 -1 13 6 22 17 20 5 32 -15
15 -10 -8 -15 -9 -15 -1 0 6 5 11 10 11 6 0 10 7 10 15 0 21 -16 19 -25 -2 -6
-16 -8 -16 -26 6 -17 21 -28 53 -12 38 3 -4 12 -2 20 4 9 9 13 8 13 0 0 -6 -4
-11 -10 -11 -5 0 -10 -7 -10 -15 0 -22 8 -19 37 15 28 34 39 39 21 10z m-860
-2 c10 -10 15 -10 22 2 6 9 10 10 10 3 0 -6 -5 -15 -10 -18 -15 -9 87 -108
104 -102 7 3 19 1 27 -5 11 -8 11 -9 -3 -4 -10 3 -20 1 -23 -4 -3 -6 -16 -1
-27 10 -16 15 -25 17 -32 9 -8 -8 -7 -13 2 -16 6 -3 9 -9 6 -14 -6 -10 -54 38
-54 54 0 4 -10 7 -22 7 -17 0 -19 3 -10 12 8 8 15 8 27 -2 25 -21 29 -4 5 20
-18 18 -24 20 -31 9 -4 -7 -12 -10 -16 -5 -4 4 1 15 12 23 19 15 19 15 -7 9
-28 -6 -40 8 -15 17 19 8 22 8 35 -5z m702 -13 c9 -10 9 -15 1 -15 -6 0 -11 5
-11 10 0 21 -16 9 -27 -20 -6 -16 -17 -30 -24 -30 -9 0 -8 5 3 18 8 9 18 25
21 35 8 21 21 22 37 2z m270 5 c0 -5 -4 -10 -10 -10 -5 0 -10 5 -10 10 0 6 5
10 10 10 6 0 10 -4 10 -10z m400 -11 c0 -13 -18 -11 -23 4 -3 7 -6 5 -6 -5 -1
-10 -5 -18 -11 -18 -13 0 -13 13 1 27 12 12 39 7 39 -8z m75 1 c-3 -5 -11 -10
-16 -10 -6 0 -7 5 -4 10 3 6 11 10 16 10 6 0 7 -4 4 -10z m-664 -55 c-3 -5 -7
-2 -9 8 -4 22 -22 22 -22 0 0 -9 -3 -13 -7 -10 -3 4 0 18 7 32 l13 25 12 -23
c6 -12 9 -26 6 -32z m359 45 c0 -5 -4 -10 -10 -10 -5 0 -10 5 -10 10 0 6 5 10
10 10 6 0 10 -4 10 -10z m-1324 -27 c17 -19 28 -24 31 -15 3 6 8 12 13 12 4 0
3 -11 -3 -24 l-12 -25 -31 34 c-17 19 -34 32 -38 28 -3 -3 -6 -1 -6 5 0 20 18
14 46 -15z m269 13 c8 -7 11 -16 8 -19 -5 -6 -33 17 -33 27 0 10 11 7 25 -8z
m960 4 c3 -5 1 -10 -4 -10 -6 0 -11 5 -11 10 0 6 2 10 4 10 3 0 8 -4 11 -10z
m425 -6 c0 -8 -5 -12 -10 -9 -6 4 -8 11 -5 16 9 14 15 11 15 -7z m-1940 -24
c18 -18 24 -30 15 -30 -7 0 -15 6 -18 13 -2 6 -8 9 -12 4 -5 -4 8 -23 29 -43
38 -36 64 -40 32 -5 -11 12 -14 21 -7 26 6 3 11 -1 11 -9 0 -8 8 -19 17 -24
15 -9 15 -11 0 -26 -15 -15 -21 -12 -76 44 -37 37 -62 56 -67 49 -3 -6 0 -15
7 -20 8 -5 9 -9 4 -9 -6 0 -16 5 -23 12 -6 6 -15 9 -18 5 -4 -4 5 -19 20 -33
14 -15 24 -29 21 -32 -3 -3 -15 7 -28 21 -18 22 -25 25 -35 15 -11 -11 -12 -9
-6 6 6 16 4 18 -10 13 -10 -4 -15 -3 -11 4 4 5 1 16 -5 24 -8 9 -8 15 -2 15 6
0 13 -6 15 -12 4 -10 8 -9 17 2 9 12 10 11 5 -8 l-7 -23 35 20 c32 18 36 18
50 3 9 -9 20 -12 24 -8 5 5 2 11 -4 13 -13 5 -18 23 -8 23 3 0 19 -13 35 -30z
m80 21 c0 -5 -6 -11 -12 -14 -9 -3 -7 -10 7 -21 13 -11 15 -15 5 -14 -8 2 -21
9 -28 15 -11 10 -11 15 0 27 15 17 28 20 28 7z m1315 -1 c3 -5 1 -10 -4 -10
-6 0 -11 5 -11 10 0 6 2 10 4 10 3 0 8 -4 11 -10z m50 -9 c-3 -6 -11 -11 -16
-11 -5 0 -4 6 3 14 14 16 24 13 13 -3z m55 -17 c0 -3 -7 -1 -15 6 -8 7 -15 17
-15 22 0 5 7 3 15 -6 8 -8 15 -18 15 -22z m174 21 c-4 -8 -11 -12 -16 -9 -6 4
-5 10 3 15 19 12 19 11 13 -6z m111 5 c3 -5 1 -10 -4 -10 -6 0 -11 5 -11 10 0
6 2 10 4 10 3 0 8 -4 11 -10z m105 0 c0 -5 -4 -10 -10 -10 -5 0 -10 5 -10 10
0 6 5 10 10 10 6 0 10 -4 10 -10z m-2135 -29 c-6 -5 -25 10 -25 20 0 5 6 4 14
-3 8 -7 12 -15 11 -17z m860 20 c3 -5 1 -12 -5 -16 -5 -3 -10 1 -10 9 0 18 6
21 15 7z m929 -6 c-4 -8 -11 -12 -16 -9 -6 4 -5 10 3 15 19 12 19 11 13 -6z
m93 9 c-3 -3 -12 -4 -19 -1 -8 3 -5 6 6 6 11 1 17 -2 13 -5z m-1962 -23 c-3
-6 -11 -11 -16 -11 -5 0 -4 6 3 14 14 16 24 13 13 -3z m1470 0 c-3 -6 -11 -11
-17 -11 -6 0 -6 6 2 15 14 17 26 13 15 -4z m555 15 c0 -3 -4 -8 -10 -11 -5 -3
-10 -1 -10 4 0 6 5 11 10 11 6 0 10 -2 10 -4z m140 -28 c0 -12 -10 -9 -26 6
-20 21 -17 28 6 14 11 -7 20 -16 20 -20z m75 22 c3 -5 1 -10 -4 -10 -6 0 -11
5 -11 10 0 6 2 10 4 10 3 0 8 -4 11 -10z m-2134 -16 c23 12 36 13 43 6 8 -8 6
-9 -5 -5 -10 4 -19 -3 -27 -20 -6 -14 -15 -25 -19 -25 -10 0 -63 48 -63 57 0
3 9 -2 19 -11 19 -17 22 -17 52 -2z m814 -13 c-6 -5 -25 10 -25 20 0 5 6 4 14
-3 8 -7 12 -15 11 -17z m1021 11 c1 -7 0 -8 -3 -2 -2 5 -9 8 -14 4 -5 -3 -9 0
-9 6 0 15 23 7 26 -8z m259 4 c12 -12 12 -15 -2 -21 -10 -3 -14 -3 -10 1 4 4
2 13 -4 21 -15 17 -1 17 16 -1z m-227 -16 c-7 -10 -14 -18 -15 -16 -6 6 9 36
18 36 5 0 4 -9 -3 -20z m-2044 -6 c5 -14 4 -15 -9 -4 -17 14 -19 20 -6 20 5 0
12 -7 15 -16z m536 13 c0 -2 -11 -13 -23 -26 -21 -19 -25 -20 -37 -6 -11 13
-10 15 2 10 8 -3 21 1 28 10 11 13 30 21 30 12z m46 -12 c17 -16 14 -18 -10
-9 -9 3 -16 10 -16 15 0 13 9 11 26 -6z m234 5 c0 -5 -4 -10 -10 -10 -5 0 -10
5 -10 10 0 6 5 10 10 10 6 0 10 -4 10 -10z m275 0 c3 -5 1 -10 -4 -10 -6 0
-11 5 -11 10 0 6 2 10 4 10 3 0 8 -4 11 -10z m228 -10 c-3 -11 -9 -20 -15 -20
-5 0 -4 9 2 20 6 11 12 20 14 20 2 0 2 -9 -1 -20z m317 10 c0 -5 -2 -10 -4
-10 -3 0 -8 5 -11 10 -3 6 -1 10 4 10 6 0 11 -4 11 -10z m80 -25 l25 -30 -27
24 c-16 14 -28 29 -28 34 0 6 1 8 3 6 1 -2 13 -17 27 -34z m-1741 -9 c-3 -3
-11 5 -18 17 -13 21 -12 21 5 5 10 -10 16 -20 13 -22z m1424 0 c-4 -6 -8 -5
-11 2 -6 19 -20 14 -27 -9 -4 -11 -9 -18 -11 -16 -3 2 0 16 7 30 10 21 14 24
30 14 10 -6 15 -16 12 -21z m197 -10 c0 -12 -5 -7 -19 24 -11 24 -11 24 3 6 9
-11 16 -24 16 -30z m203 32 c4 -10 8 -10 15 1 8 11 10 8 9 -12 -1 -15 -2 -27
-3 -27 0 0 -11 11 -24 25 -13 14 -19 25 -13 25 6 0 14 -6 16 -12z m277 8 c0
-2 -8 -10 -17 -17 -16 -13 -17 -12 -4 4 13 16 21 21 21 13z m-2239 -23 c13
-16 12 -17 -3 -4 -10 7 -18 15 -18 17 0 8 8 3 21 -13z m119 -24 c0 -5 -9 -1
-20 8 -11 10 -20 22 -20 27 0 5 9 1 20 -9 11 -10 20 -22 20 -26z m400 37 c0
-3 -4 -8 -10 -11 -5 -3 -10 -1 -10 4 0 6 5 11 10 11 6 0 10 -2 10 -4z m222
-31 c17 -23 6 -22 -17 1 -14 14 -25 28 -25 31 0 6 31 -17 42 -32z m471 20 c-3
-9 -8 -14 -10 -11 -3 3 -2 9 2 15 9 16 15 13 8 -4z m297 5 c0 -5 -2 -10 -4
-10 -3 0 -8 5 -11 10 -3 6 -1 10 4 10 6 0 11 -4 11 -10z m330 6 c0 -2 -7 -7
-16 -10 -8 -3 -12 -2 -9 4 6 10 25 14 25 6z m540 0 c0 -3 -4 -8 -10 -11 -5 -3
-10 -1 -10 4 0 6 5 11 10 11 6 0 10 -2 10 -4z m-2747 -23 c-3 -7 0 -13 6 -13
6 0 11 8 11 18 0 14 2 15 10 2 13 -20 -16 -36 -36 -20 -18 16 -18 27 0 27 8 0
12 -6 9 -14z m437 2 c14 -16 10 -18 -14 -9 -9 3 -16 10 -16 15 0 14 16 11 30
-6z m138 -5 c7 -11 10 -20 6 -20 -7 0 -34 27 -34 34 0 13 16 5 28 -14z m92 10
c0 -5 -5 -10 -11 -10 -5 0 -7 5 -4 10 3 6 8 10 11 10 2 0 4 -4 4 -10z m560
-47 c0 -4 -11 4 -25 19 -14 15 -25 31 -25 35 0 4 11 -4 25 -19 14 -15 25 -31
25 -35z m75 29 c15 -12 25 -25 22 -29 -4 -3 -15 4 -26 15 -10 12 -23 22 -29
22 -6 0 -13 4 -16 9 -11 16 20 6 49 -17z m152 -19 c12 -12 23 -25 23 -30 0 -4
-5 -2 -12 5 -9 9 -15 7 -25 -6 -13 -15 -13 -15 -3 5 9 19 7 25 -9 35 -11 7
-17 18 -13 27 5 13 6 13 10 0 3 -7 16 -24 29 -36z m149 12 c-3 -36 8 -56 17
-33 4 10 6 10 6 0 1 -7 -6 -15 -14 -18 -8 -4 -12 -10 -9 -15 3 -5 10 -6 16 -3
6 4 6 -2 -1 -15 -7 -11 -14 -21 -17 -21 -3 0 -2 5 1 11 4 5 -3 18 -14 28 -19
16 -19 20 -6 31 9 7 14 19 11 27 -5 12 2 43 9 43 2 0 2 -16 1 -35z m514 -20
c0 -4 -9 3 -21 16 -17 20 -20 21 -15 5 5 -16 4 -17 -8 -7 -12 10 -12 16 -3 25
9 10 15 8 29 -10 10 -12 18 -25 18 -29z m-1787 28 c-7 -2 -9 -12 -6 -21 6 -14
5 -15 -9 -2 -14 13 -14 16 1 27 9 6 18 9 21 6 3 -3 0 -8 -7 -10z m587 7 c8 -5
11 -13 6 -17 -5 -4 -11 -2 -13 5 -3 6 -9 10 -14 6 -5 -3 -9 0 -9 5 0 13 10 14
30 1z m248 -11 c9 -12 23 -27 30 -35 7 -8 10 -14 5 -14 -12 0 -27 13 -40 35
-6 11 -16 19 -22 18 -6 -2 -11 2 -11 7 0 17 19 11 38 -11z m1002 17 c0 -2 -7
-7 -16 -10 -8 -3 -12 -2 -9 4 6 10 25 14 25 6z m60 0 c0 -2 -7 -7 -16 -10 -8
-3 -12 -2 -9 4 6 10 25 14 25 6z m-1595 -24 c-3 -3 -11 0 -18 7 -9 10 -8 11 6
5 10 -3 15 -9 12 -12z m55 8 c0 -5 -5 -10 -11 -10 -5 0 -7 5 -4 10 3 6 8 10
11 10 2 0 4 -4 4 -10z m44 -2 c5 -10 7 -10 12 0 3 6 11 12 17 12 7 0 5 -6 -4
-15 -15 -16 -49 -11 -49 6 0 13 17 11 24 -3z m102 -2 c20 -21 17 -28 -6 -14
-11 7 -20 16 -20 20 0 12 10 9 26 -6z m214 -7 c-13 -8 -13 -11 2 -23 10 -7 15
-16 12 -19 -4 -3 -14 4 -24 16 -16 20 -16 22 -1 33 9 7 18 10 21 8 2 -3 -2 -9
-10 -15z m600 -15 c0 -3 -7 -1 -15 6 -8 7 -15 17 -15 22 0 5 7 3 15 -6 8 -8
15 -18 15 -22z m318 0 c-4 -3 -12 5 -18 18 -12 22 -12 22 6 6 10 -10 15 -20
12 -24z m97 6 l20 -25 -22 19 c-13 11 -23 24 -23 29 0 6 1 8 3 6 1 -2 11 -15
22 -29z m625 5 c-7 -9 -15 -13 -17 -11 -6 6 20 36 26 30 2 -2 -2 -10 -9 -19z
m80 15 c0 -5 -4 -10 -10 -10 -5 0 -10 5 -10 10 0 6 5 10 10 10 6 0 10 -4 10
-10z m-2349 -17 c13 -16 12 -17 -3 -4 -10 7 -18 15 -18 17 0 8 8 3 21 -13z
m855 2 c10 -8 15 -14 9 -14 -5 0 -19 6 -29 14 -11 8 -15 15 -10 15 6 0 19 -7
30 -15z m-986 -5 c0 -5 -4 -10 -10 -10 -5 0 -10 5 -10 10 0 6 5 10 10 10 6 0
10 -4 10 -10z m180 -15 c14 -19 14 -19 -2 -6 -10 7 -18 18 -18 24 0 6 1 8 3 6
1 -2 9 -13 17 -24z m60 0 c14 -19 14 -19 -2 -6 -10 7 -18 18 -18 24 0 6 1 8 3
6 1 -2 9 -13 17 -24z m265 14 c11 -16 1 -19 -13 -3 -7 8 -8 14 -3 14 5 0 13
-5 16 -11z m295 1 c0 -5 -2 -10 -4 -10 -3 0 -8 5 -11 10 -3 6 -1 10 4 10 6 0
11 -4 11 -10z m696 -23 c5 -9 4 -9 -7 1 -19 17 -29 15 -23 -5 5 -14 4 -15 -4
-4 -6 8 -15 10 -22 6 -9 -6 -6 -13 11 -27 22 -18 22 -18 2 -9 -31 16 -34 25
-17 49 12 18 19 20 34 12 10 -6 22 -16 26 -23z m1004 23 c0 -5 -5 -10 -11 -10
-5 0 -7 5 -4 10 3 6 8 10 11 10 2 0 4 -4 4 -10z m-2220 -10 c0 -5 -2 -10 -4
-10 -3 0 -8 5 -11 10 -3 6 -1 10 4 10 6 0 11 -4 11 -10z m90 0 c0 -5 -5 -10
-11 -10 -5 0 -7 5 -4 10 3 6 8 10 11 10 2 0 4 -4 4 -10z m304 -19 c-2 -3 -12
3 -22 13 -16 17 -16 18 5 5 12 -7 20 -15 17 -18z m544 15 c-7 -8 -15 -12 -17
-11 -5 6 10 25 20 25 5 0 4 -6 -3 -14z m-1238 -21 c13 -14 19 -25 14 -25 -8 1
-50 50 -41 50 2 0 14 -11 27 -25z m506 11 c20 -21 17 -28 -6 -14 -11 7 -20 16
-20 20 0 12 10 9 26 -6z m484 4 c0 -5 -4 -10 -10 -10 -5 0 -10 5 -10 10 0 6 5
10 10 10 6 0 10 -4 10 -10z m698 -15 c-3 -3 -9 2 -12 12 -6 14 -5 15 5 6 7 -7
10 -15 7 -18z m752 7 c-8 -3 -22 -10 -30 -16 -8 -6 -7 -1 4 11 10 13 23 20 29
16 7 -4 6 -8 -3 -11z m-2400 4 c0 -3 -4 -8 -10 -11 -5 -3 -10 -1 -10 4 0 6 5
11 10 11 6 0 10 -2 10 -4z m140 -6 c0 -5 -4 -10 -10 -10 -5 0 -10 5 -10 10 0
6 5 10 10 10 6 0 10 -4 10 -10z m280 6 c0 -3 -4 -8 -10 -11 -5 -3 -10 -1 -10
4 0 6 5 11 10 11 6 0 10 -2 10 -4z m210 -32 c0 -3 -7 -1 -15 6 -8 7 -15 17
-15 22 0 5 7 3 15 -6 8 -8 15 -18 15 -22z m205 -13 c-3 -2 -12 5 -21 17 -8 12
-20 19 -26 16 -7 -5 -8 -2 -3 5 5 9 13 7 31 -10 13 -12 22 -25 19 -28z m51 2
c-6 -6 -46 30 -46 41 0 5 11 -1 25 -14 14 -13 23 -25 21 -27z m99 31 c-9 -9
-19 -13 -23 -10 -3 4 0 11 8 16 24 15 33 11 15 -6z m235 12 c0 -2 -8 -10 -17
-17 -16 -13 -17 -12 -4 4 13 16 21 21 21 13z m334 -12 c3 -8 2 -12 -3 -9 -5 3
-12 1 -16 -5 -3 -5 -10 -10 -16 -10 -7 0 16 32 27 39 1 1 5 -6 8 -15z m127 -7
c-10 -9 -11 -8 -5 6 3 10 9 15 12 12 3 -3 0 -11 -7 -18z m-1860 -4 c13 -16 12
-17 -3 -4 -10 7 -18 15 -18 17 0 8 8 3 21 -13z m49 7 c0 -5 -4 -10 -10 -10 -5
0 -10 5 -10 10 0 6 5 10 10 10 6 0 10 -4 10 -10z m50 0 c0 -5 -2 -10 -4 -10
-3 0 -8 5 -11 10 -3 6 -1 10 4 10 6 0 11 -4 11 -10z m285 0 c3 -5 1 -10 -4
-10 -6 0 -11 5 -11 10 0 6 2 10 4 10 3 0 8 -4 11 -10z m135 -5 c11 -13 10 -14
-4 -9 -9 3 -16 10 -16 15 0 13 6 11 20 -6z m390 -6 c0 -6 -4 -7 -10 -4 -5 3
-10 11 -10 16 0 6 5 7 10 4 6 -3 10 -11 10 -16z m217 -6 c-7 -6 -46 10 -41 18
3 5 14 3 24 -3 11 -7 18 -13 17 -15z m104 4 c-10 -9 -11 -8 -5 6 3 10 9 15 12
12 3 -3 0 -11 -7 -18z m196 16 c-4 -3 -2 -11 3 -18 7 -8 5 -12 -4 -12 -8 0
-12 7 -11 16 5 22 4 21 12 21 3 0 3 -3 0 -7z m120 -18 c-15 -16 -19 -13 -11 9
3 9 10 13 15 10 5 -3 3 -11 -4 -19z m-1112 -3 c-3 -3 -11 0 -18 7 -9 10 -8 11
6 5 10 -3 15 -9 12 -12z m145 -3 c0 -6 -4 -7 -10 -4 -5 3 -10 11 -10 16 0 6 5
7 10 4 6 -3 10 -11 10 -16z m40 17 c0 -3 -4 -8 -10 -11 -5 -3 -10 -1 -10 4 0
6 5 11 10 11 6 0 10 -2 10 -4z m148 -21 c-3 -3 -9 2 -12 12 -6 14 -5 15 5 6 7
-7 10 -15 7 -18z m427 15 c3 -5 1 -10 -4 -10 -6 0 -11 5 -11 10 0 6 2 10 4 10
3 0 8 -4 11 -10z m478 -5 c4 -8 3 -16 -1 -19 -4 -3 -9 4 -9 15 -2 23 3 25 10
4z m1002 5 c3 -6 -1 -7 -9 -4 -18 7 -21 14 -7 14 6 0 13 -4 16 -10z m-2020
-39 c-2 -2 -11 3 -19 12 -8 8 -12 17 -9 21 3 3 12 -2 19 -12 7 -9 11 -19 9
-21z m735 32 c12 10 12 9 1 -5 -10 -14 -18 -15 -32 -7 -10 5 -19 12 -19 15 0
2 8 0 18 -5 13 -7 23 -6 32 2z m1140 -9 c0 -8 -5 -12 -10 -9 -6 4 -8 11 -5 16
9 14 15 11 15 -7z m-1690 -19 c14 -19 14 -19 -2 -6 -10 7 -18 18 -18 24 0 6 1
8 3 6 1 -2 9 -13 17 -24z m325 15 c3 -6 -1 -7 -9 -4 -18 7 -21 14 -7 14 6 0
13 -4 16 -10z m-705 -10 c0 -5 -2 -10 -4 -10 -3 0 -8 5 -11 10 -3 6 -1 10 4
10 6 0 11 -4 11 -10z m50 0 c0 -5 -2 -10 -4 -10 -3 0 -8 5 -11 10 -3 6 -1 10
4 10 6 0 11 -4 11 -10z m45 0 c3 -5 1 -10 -4 -10 -6 0 -11 5 -11 10 0 6 2 10
4 10 3 0 8 -4 11 -10z m240 0 c3 -5 1 -10 -4 -10 -6 0 -11 5 -11 10 0 6 2 10
4 10 3 0 8 -4 11 -10z m151 -4 c20 -21 17 -28 -6 -14 -11 7 -20 16 -20 20 0
12 10 9 26 -6z m44 4 c8 -5 11 -10 5 -10 -5 0 -17 5 -25 10 -8 5 -10 10 -5 10
6 0 17 -5 25 -10z m48 -8 c-10 -2 -18 -8 -18 -13 0 -5 -5 -9 -12 -9 -6 0 -3 8
7 20 10 11 23 16 29 12 7 -4 5 -8 -6 -10z m92 8 c8 -5 11 -10 5 -10 -5 0 -17
5 -25 10 -8 5 -10 10 -5 10 6 0 17 -5 25 -10z m180 4 c0 -8 -19 -13 -24 -6 -3
5 1 9 9 9 8 0 15 -2 15 -3z m48 -9 c-2 -1 -14 -8 -28 -14 -22 -11 -23 -10 -8
2 10 8 15 17 11 21 -4 4 1 4 10 0 10 -3 17 -8 15 -9z m-1192 -23 c-4 -3 -14 2
-24 12 -16 18 -16 18 6 6 13 -6 21 -14 18 -18z m444 18 c0 -5 -2 -10 -4 -10
-3 0 -8 5 -11 10 -3 6 -1 10 4 10 6 0 11 -4 11 -10z m290 0 c0 -5 -5 -10 -11
-10 -5 0 -7 5 -4 10 3 6 8 10 11 10 2 0 4 -4 4 -10z m544 1 c3 -4 -4 -7 -14
-6 -27 2 -33 10 -10 12 11 1 22 -2 24 -6z m-954 -11 c0 -5 -4 -10 -10 -10 -5
0 -10 5 -10 10 0 6 5 10 10 10 6 0 10 -4 10 -10z m73 -35 c12 -8 17 -15 11
-15 -17 0 -54 36 -54 51 1 10 4 9 11 -3 5 -10 19 -24 32 -33z m610 11 c-3 -4
-9 -2 -14 5 -13 22 -11 31 5 17 8 -7 12 -17 9 -22z m92 24 c3 -6 -1 -7 -9 -4
-18 7 -21 14 -7 14 6 0 13 -4 16 -10z m452 -20 c11 -7 35 -35 54 -63 32 -46
34 -55 33 -126 0 -57 -6 -88 -23 -123 -27 -55 -94 -121 -148 -143 -34 -15 -41
-15 -80 0 -134 51 -173 239 -78 382 60 90 163 122 242 73z m-652 10 c-3 -5
-12 -10 -18 -10 -7 0 -6 4 3 10 19 12 23 12 15 0z m-279 -15 c9 -8 11 -15 6
-15 -5 0 -15 7 -22 15 -7 8 -9 15 -6 15 4 0 14 -7 22 -15z m110 -1 c18 -14 18
-14 -6 -3 -31 14 -36 19 -24 19 6 0 19 -7 30 -16z m-425 -11 c13 -17 13 -17
-6 -3 -11 8 -22 16 -24 17 -2 2 0 3 6 3 6 0 17 -8 24 -17z m179 7 c0 -5 -2
-10 -4 -10 -3 0 -8 5 -11 10 -3 6 -1 10 4 10 6 0 11 -4 11 -10z m58 -10 c7
-11 11 -20 9 -20 -2 0 -12 9 -22 20 -10 11 -14 20 -9 20 5 0 15 -9 22 -20z
m-548 -10 c0 -5 -2 -10 -4 -10 -3 0 -8 5 -11 10 -3 6 -1 10 4 10 6 0 11 -4 11
-10z m196 -18 c-4 -3 -14 2 -24 12 -16 18 -16 18 6 6 13 -6 21 -14 18 -18z
m-76 8 c0 -5 -5 -10 -11 -10 -5 0 -7 5 -4 10 3 6 8 10 11 10 2 0 4 -4 4 -10z
m115 0 c3 -5 1 -10 -4 -10 -6 0 -11 5 -11 10 0 6 2 10 4 10 3 0 8 -4 11 -10z
m920 -10 c56 -27 80 -71 73 -135 -3 -26 -14 -59 -25 -74 -22 -30 -116 -81
-150 -81 -13 0 -23 -6 -22 -12 1 -7 1 -50 0 -96 l-1 -83 -37 3 -38 3 0 237 0
237 45 7 c25 3 50 7 55 9 26 9 62 3 100 -15z m1099 4 c3 -8 2 -12 -4 -9 -6 3
-10 10 -10 16 0 14 7 11 14 -7z m-1611 -9 c-3 -9 -8 -14 -10 -11 -3 3 -2 9 2
15 9 16 15 13 8 -4z m-478 -5 c3 -5 2 -10 -4 -10 -5 0 -13 5 -16 10 -3 6 -2
10 4 10 5 0 13 -4 16 -10z m78 -34 c4 -10 1 -13 -9 -9 -7 3 -14 9 -14 14 0 14
17 10 23 -5z m617 -10 c6 -8 10 -25 8 -38 -3 -21 -9 -23 -63 -26 -64 -3 -85
-14 -85 -42 0 -23 52 -67 106 -91 47 -21 64 -52 64 -113 0 -36 -7 -51 -40 -89
-50 -56 -93 -72 -149 -57 -48 13 -65 39 -56 86 7 38 10 39 45 19 31 -18 82
-19 98 -3 7 7 12 24 12 39 0 30 -22 50 -96 87 -78 40 -80 141 -3 213 27 25 39
29 89 29 38 0 62 -5 70 -14z m-299 -42 c35 -32 16 -107 -21 -84 -29 19 -85 11
-109 -14 -13 -14 -20 -30 -16 -36 4 -6 32 -22 63 -36 87 -38 112 -67 112 -128
0 -65 -25 -106 -86 -142 -70 -41 -124 -31 -158 28 -18 29 -18 31 1 49 18 19
21 19 57 4 48 -20 79 -13 94 20 20 44 14 54 -53 87 -76 36 -105 67 -105 114 0
45 12 74 46 108 56 56 132 69 175 30z m-826 6 c3 -5 1 -10 -4 -10 -6 0 -11 5
-11 10 0 6 2 10 4 10 3 0 8 -4 11 -10z m443 -107 c11 -32 43 -119 70 -193 27
-74 52 -147 56 -162 6 -27 5 -28 -29 -28 -29 0 -39 6 -55 33 -11 17 -21 36
-23 41 -5 14 -135 -4 -152 -21 -8 -8 -18 -32 -21 -53 -7 -43 -25 -55 -68 -44
-30 7 -31 10 -10 59 8 20 13 40 10 43 -3 3 1 10 8 16 8 6 28 58 45 115 37 125
79 233 95 243 6 4 21 8 33 8 17 0 25 -11 41 -57z m-279 2 c56 -28 77 -122 45
-191 -18 -38 -79 -85 -135 -103 -33 -11 -37 -16 -43 -58 -3 -25 -6 -60 -6 -78
0 -37 -25 -50 -67 -34 l-24 9 7 217 c3 120 10 222 14 226 21 24 171 32 209 12z
m41 -365 c0 -5 -5 -10 -11 -10 -5 0 -7 5 -4 10 3 6 8 10 11 10 2 0 4 -4 4 -10z
m903 -5 c-3 -9 -8 -14 -10 -11 -3 3 -2 9 2 15 9 16 15 13 8 -4z m135 -30 c-3
-3 -9 2 -12 12 -6 14 -5 15 5 6 7 -7 10 -15 7 -18z m-188 -10 c7 -8 9 -15 6
-15 -4 0 -14 7 -22 15 -9 8 -11 15 -6 15 5 0 15 -7 22 -15z m-35 -13 c-3 -3
-11 0 -18 7 -9 10 -8 11 6 5 10 -3 15 -9 12 -12z m196 -5 c-10 -9 -11 -8 -5 6
3 10 9 15 12 12 3 -3 0 -11 -7 -18z m-493 -52 c6 -14 10 -25 8 -25 -2 0 -11
11 -20 25 -9 14 -13 25 -8 25 5 0 14 -11 20 -25z m416 -14 c-3 -3 -15 6 -27
18 l-22 24 27 -19 c14 -10 24 -21 22 -23z m-470 5 c-3 -9 -10 -13 -15 -10 -5
3 -3 11 4 19 15 16 19 13 11 -9z m-440 -22 c3 -8 2 -12 -4 -9 -6 3 -10 10 -10
16 0 14 7 11 14 -7z m311 -14 c10 -11 16 -20 13 -20 -3 0 -13 9 -23 20 -10 11
-16 20 -13 20 3 0 13 -9 23 -20z m45 10 c0 -5 -4 -10 -10 -10 -5 0 -10 5 -10
10 0 6 5 10 10 10 6 0 10 -4 10 -10z m-55 -40 c3 -5 2 -10 -4 -10 -5 0 -13 5
-16 10 -3 6 -2 10 4 10 5 0 13 -4 16 -10z m545 -4 c0 -3 -4 -8 -10 -11 -5 -3
-10 -1 -10 4 0 6 5 11 10 11 6 0 10 -2 10 -4z m-490 -56 c0 -5 -2 -10 -4 -10
-3 0 -8 5 -11 10 -3 6 -1 10 4 10 6 0 11 -4 11 -10z m485 -40 c3 -6 -1 -7 -9
-4 -18 7 -21 14 -7 14 6 0 13 -4 16 -10z m-1250 -60 c3 -5 1 -10 -4 -10 -6 0
-11 5 -11 10 0 6 2 10 4 10 3 0 8 -4 11 -10z m1654 -80 c110 -27 182 -65 176
-94 -2 -12 -4 -25 -4 -29 -1 -10 -52 -4 -151 16 -161 34 -280 33 -280 -1 0
-10 63 -81 141 -160 163 -166 146 -163 226 -33 61 102 79 125 86 108 7 -19
-34 -116 -77 -187 -43 -69 -44 -79 -12 -109 22 -20 29 -22 55 -13 36 13 38 9
12 -26 -10 -15 -22 -43 -26 -62 -5 -19 -10 -29 -12 -22 -8 20 -22 14 -62 -27
-48 -49 -131 -97 -193 -110 -26 -6 -72 -20 -104 -32 l-56 -21 6 -102 c3 -55 6
-118 6 -138 0 -45 4 -46 136 -22 118 21 294 41 294 33 0 -3 -3 -9 -7 -13 -4
-4 -8 -17 -8 -29 0 -16 -8 -23 -35 -28 -19 -4 -71 -14 -115 -23 -44 -9 -117
-21 -163 -26 -46 -5 -87 -12 -91 -14 -9 -6 -23 -292 -15 -322 l5 -21 81 24
c44 13 91 23 104 23 12 0 25 4 28 9 10 16 63 4 102 -24 21 -15 32 -25 23 -22
-9 3 -21 1 -27 -5 -6 -6 -20 -4 -40 6 -17 9 -37 16 -44 16 -7 -1 2 -9 20 -18
18 -10 30 -21 26 -25 -4 -4 7 -7 24 -7 21 0 36 -7 44 -20 7 -11 20 -20 28 -20
11 0 12 -2 3 -8 -9 -6 -12 -31 -10 -79 1 -39 6 -69 10 -66 5 3 4 -5 -3 -17 -7
-14 -8 -25 -3 -29 6 -3 13 -22 16 -41 l6 -35 -21 40 c-12 22 -31 69 -43 104
l-22 63 -60 -88 c-33 -49 -88 -127 -122 -174 -123 -167 -139 -200 -103 -200
10 0 60 13 112 30 83 26 171 69 275 135 27 17 26 15 -9 -23 -39 -41 -57 -88
-29 -78 27 11 11 -5 -40 -39 -196 -130 -493 -170 -715 -97 -137 46 -193 82
-324 211 -106 105 -121 125 -162 211 -125 261 -148 513 -75 830 30 134 38 158
86 260 92 195 236 370 413 500 133 98 262 153 405 173 87 12 234 6 314 -13z
m-969 -180 c0 -5 -2 -10 -4 -10 -3 0 -8 5 -11 10 -3 6 -1 10 4 10 6 0 11 -4
11 -10z m-72 -290 c-7 -10 -14 -17 -17 -15 -4 4 18 35 25 35 2 0 -1 -9 -8 -20z
m1237 -270 c4 -34 6 -63 4 -65 -2 -2 -13 30 -25 70 -18 67 -19 73 -3 65 12 -7
19 -28 24 -70z m2 -515 c-4 -36 -16 -87 -27 -113 -23 -50 -33 -86 -32 -114 0
-10 -4 -18 -9 -18 -6 0 -7 5 -4 10 9 14 -8 12 -24 -2 -11 -11 -11 -9 -2 10 7
13 17 20 23 16 7 -5 9 -2 5 8 -3 9 5 44 18 80 13 35 29 92 35 126 7 34 15 62
18 62 3 0 2 -29 -1 -65z m330 -357 c-3 -8 -6 -5 -6 6 -1 11 2 17 5 13 3 -3 4
-12 1 -19z m-302 -937 c3 -5 -5 -13 -17 -16 l-21 -7 24 -19 24 -19 -39 0 c-32
0 -46 -7 -77 -40 -64 -67 -65 -151 -4 -210 26 -26 44 -34 70 -34 37 0 43 -7
23 -24 -18 -15 -112 -9 -132 7 -30 25 -56 88 -56 136 0 55 37 138 77 177 50
47 113 72 128 49z m-278 -76 c33 -33 35 -39 31 -80 -7 -61 -46 -109 -105 -131
-27 -10 -51 -23 -55 -28 -4 -6 -8 -39 -8 -73 0 -60 -1 -63 -25 -63 l-24 0 -3
201 c-2 110 -1 203 1 205 2 2 38 4 79 4 71 0 75 -1 109 -35z m-279 3 c12 -12
17 -60 7 -70 -3 -3 -23 0 -45 5 -33 9 -42 8 -60 -8 -35 -32 -26 -59 31 -85 71
-34 99 -70 99 -127 0 -40 -5 -51 -42 -88 -32 -32 -54 -44 -87 -50 -41 -7 -47
-5 -68 19 -43 51 -23 88 37 67 40 -13 78 3 87 37 9 35 -6 53 -71 87 -32 17
-62 39 -68 49 -13 23 -4 80 17 113 35 52 131 83 163 51z m-250 -69 l3 -35 -57
1 c-43 0 -59 -4 -68 -17 -15 -24 -1 -45 49 -72 58 -31 80 -48 93 -73 26 -48 9
-104 -47 -158 -25 -23 -40 -29 -72 -28 -47 2 -85 23 -94 54 -11 34 8 44 56 29
46 -16 65 -9 89 33 18 32 6 49 -59 82 -60 30 -82 55 -88 102 -4 34 0 43 34 82
65 74 155 74 161 0z m-340 -26 c13 -34 73 -208 96 -277 23 -70 21 -106 -4
-106 -13 0 -28 12 -38 31 -33 59 -31 58 -102 45 l-64 -12 -13 -43 c-15 -51
-12 -47 -40 -55 -21 -7 -23 -4 -23 29 0 19 13 70 29 113 55 149 89 247 95 275
5 20 12 27 30 27 16 0 27 -8 34 -27z m-238 -28 c60 -31 79 -124 38 -186 -15
-22 -45 -45 -84 -64 -66 -32 -74 -46 -74 -137 0 -37 -1 -38 -35 -38 l-34 0 -3
201 c-2 152 0 203 10 211 33 28 139 35 182 13z m1144 -752 c3 -48 3 -90 -1
-94 -5 -4 -41 -9 -80 -10 l-73 -4 -31 38 c-45 55 -76 49 -160 -28 -40 -38 -53
-44 -108 -50 -35 -4 -67 -3 -72 2 -14 14 -27 164 -15 168 6 2 117 15 246 30
129 14 236 28 239 30 2 3 14 5 26 5 20 0 23 -6 29 -87z m-213 -107 c16 -33 4
-72 -27 -92 -24 -16 -26 -16 -46 3 -11 12 -20 33 -20 47 0 59 71 90 93 42z
m217 -121 c2 -63 0 -86 -10 -90 -7 -2 -71 -13 -143 -24 -71 -10 -185 -29 -253
-42 -107 -20 -124 -21 -132 -9 -6 8 -10 56 -10 107 l0 92 48 6 c26 3 63 8 83
10 33 4 38 2 49 -25 34 -81 149 -81 191 1 18 36 21 37 91 47 40 5 75 10 78 11
3 0 7 -37 8 -84z"/>
<path d="M5440 8129 c0 -17 28 -40 35 -29 3 6 0 17 -9 25 -17 18 -26 19 -26 4z"/>
<path d="M5400 8071 c0 -5 6 -12 13 -15 8 -3 7 -9 -7 -20 -18 -14 -17 -16 10
-39 25 -22 61 -27 49 -7 -3 5 1 10 7 13 7 2 9 8 5 13 -5 5 -14 1 -21 -9 -13
-17 -32 -25 -22 -8 4 5 0 11 -6 14 -7 2 -9 8 -5 13 4 5 12 2 16 -5 6 -9 11
-10 15 -3 4 6 -3 23 -15 37 -23 26 -39 32 -39 16z"/>
<path d="M4250 7860 c0 -5 4 -10 9 -10 6 0 13 5 16 10 3 6 -1 10 -9 10 -9 0
-16 -4 -16 -10z"/>
<path d="M3500 7850 c0 -5 5 -10 10 -10 6 0 10 5 10 10 0 6 -4 10 -10 10 -5 0
-10 -4 -10 -10z"/>
<path d="M4525 7582 c-56 -26 -65 -41 -72 -119 -6 -76 8 -119 49 -147 36 -25
66 -19 111 23 41 38 42 41 45 113 6 130 -39 173 -133 130z m106 -135 c-10 -9
-11 -8 -5 6 3 10 9 15 12 12 3 -3 0 -11 -7 -18z"/>
<path d="M4140 7480 c0 -41 4 -70 10 -70 6 0 25 6 44 14 41 17 64 65 48 101
-10 21 -18 25 -57 25 l-45 0 0 -70z"/>
<path d="M3208 7296 c-33 -105 -35 -96 16 -96 41 0 46 2 46 23 -1 12 -11 45
-23 73 l-22 52 -17 -52z"/>
<path d="M2877 7334 c-4 -4 -7 -36 -7 -71 l0 -65 33 7 c45 9 78 51 75 95 -3
34 -4 35 -48 38 -25 2 -49 0 -53 -4z"/>
<path d="M3885 6521 c-68 -17 -218 -102 -313 -179 -38 -31 -41 -37 -28 -51 7
-9 25 -39 39 -66 14 -28 33 -61 44 -73 l18 -23 42 59 c23 33 69 91 101 129
102 118 164 216 135 212 -5 -1 -21 -4 -38 -8z m-194 -158 c13 -16 12 -17 -3
-4 -10 7 -18 15 -18 17 0 8 8 3 21 -13z"/>
<path d="M3924 6368 c-58 -62 -169 -217 -161 -225 4 -3 32 -2 64 3 56 7 64 9
81 14 4 1 19 1 35 0 25 -1 27 1 27 37 1 21 3 80 6 131 3 50 4 92 1 92 -2 0
-26 -24 -53 -52z"/>
<path d="M4036 6403 c-8 -8 -8 -150 0 -190 6 -29 7 -30 47 -22 58 11 117 11
117 -1 0 -15 -45 -41 -107 -60 -67 -20 -70 -28 -58 -138 l7 -64 36 7 c50 9
162 69 201 107 34 34 38 55 16 97 -15 31 -37 43 -59 35 -9 -4 -20 10 -32 42
-34 88 -144 211 -168 187z"/>
<path d="M3454 6224 c-20 -21 -48 -54 -62 -72 l-25 -33 34 -33 c19 -19 64 -50
101 -70 66 -37 67 -37 78 -16 6 12 12 33 12 48 0 26 -58 158 -87 196 -14 18
-16 17 -51 -20z"/>
<path d="M3930 6090 c0 -5 -20 -7 -132 -12 -38 -2 -68 -7 -68 -12 0 -4 -7 -6
-15 -2 -14 5 -35 -20 -35 -42 0 -16 53 -63 90 -79 19 -8 69 -17 111 -20 l76
-6 7 74 c4 41 9 81 12 90 4 13 -1 17 -21 15 -14 0 -25 -3 -25 -6z m21 -57 c13
-16 12 -17 -3 -4 -10 7 -18 15 -18 17 0 8 8 3 21 -13z"/>
<path d="M4332 6080 c-16 -26 -15 -30 3 -30 19 0 31 28 19 40 -6 6 -14 2 -22
-10z"/>
<path d="M3262 5918 c-23 -57 -53 -146 -66 -198 -24 -94 -53 -277 -45 -284 4
-4 245 31 265 38 7 3 13 44 16 103 4 77 12 117 37 188 37 103 47 145 34 145
-5 0 -51 25 -102 55 -51 30 -94 55 -95 55 -2 0 -21 -46 -44 -102z"/>
<path d="M3568 5824 c-14 -33 -33 -84 -41 -114 -19 -66 -42 -219 -34 -226 5
-5 157 12 188 22 10 3 17 16 17 32 1 35 10 122 22 197 15 95 14 101 -26 120
-19 9 -50 19 -68 22 -31 5 -33 3 -58 -53z"/>
<path d="M3788 5823 c-25 -4 -28 -9 -29 -46 -2 -51 -5 -89 -14 -184 l-7 -73
34 1 c18 0 69 6 113 12 l80 12 5 143 5 142 -80 -1 c-44 -1 -92 -4 -107 -6z"/>
<path d="M3841 5443 c-52 -7 -98 -18 -102 -24 -8 -14 -2 -99 13 -177 7 -39 14
-52 24 -48 7 3 16 1 18 -3 3 -5 16 -6 30 -4 13 3 27 0 30 -6 4 -6 12 -11 17
-11 6 0 7 6 2 13 -4 6 5 4 19 -5 20 -13 28 -14 31 -5 3 6 6 -3 6 -20 1 -25 5
-33 19 -33 17 0 20 14 26 161 4 89 4 164 1 167 -9 10 -36 9 -134 -5z"/>
<path d="M3590 5403 c-19 -2 -50 -6 -68 -9 l-34 -5 7 -62 c10 -92 31 -169 65
-237 l31 -61 59 46 c40 31 62 56 70 80 13 40 6 121 -16 172 -7 20 -9 35 -3 38
5 4 9 15 9 26 0 20 -22 22 -120 12z"/>
<path d="M3247 5355 c-49 -7 -91 -15 -93 -18 -7 -7 23 -189 42 -256 19 -67 85
-200 111 -224 19 -16 22 -16 75 2 64 22 133 63 146 88 7 12 3 32 -15 72 -45
100 -74 191 -85 272 l-11 79 -41 -1 c-23 -1 -81 -7 -129 -14z"/>
<path d="M4137 5076 c-43 -13 -85 -30 -92 -37 -9 -10 -14 -71 -18 -213 -3
-109 -4 -197 -3 -195 26 28 139 212 156 254 14 35 45 79 82 118 32 34 57 69
56 77 -5 24 -92 23 -181 -4z"/>
<path d="M3875 5030 c-100 -26 -198 -63 -202 -77 -3 -7 15 -22 38 -33 51 -27
78 -55 136 -145 25 -38 62 -90 82 -114 l36 -44 5 34 c3 19 4 113 2 211 -2 128
-6 177 -15 181 -7 2 -44 -3 -82 -13z"/>
<path d="M3495 4830 c-43 -27 -87 -53 -97 -56 -29 -9 -21 -25 37 -80 65 -62
189 -126 299 -154 85 -21 206 -27 206 -9 0 17 -114 160 -172 215 -51 49 -96
84 -108 84 -4 0 -17 -25 -29 -55 -13 -30 -27 -55 -32 -55 -4 0 -5 -7 -2 -17 5
-12 3 -14 -7 -8 -10 6 -12 0 -8 -23 4 -27 2 -30 -10 -20 -18 15 -9 105 14 150
16 31 16 69 -1 75 -6 2 -46 -19 -90 -47z"/>
<path d="M4143 3983 c-21 -4 -23 -10 -23 -75 l0 -70 32 6 c49 10 78 43 78 87
0 21 -3 40 -7 42 -16 8 -59 14 -80 10z"/>
<path d="M3344 3778 c-6 -18 -19 -50 -28 -70 l-16 -38 47 7 c27 3 50 7 52 9 5
4 -33 124 -39 124 -3 0 -10 -15 -16 -32z"/>
<path d="M3040 3756 c0 -64 1 -66 25 -66 41 0 77 43 73 88 -3 37 -3 37 -50 40
l-48 3 0 -65z"/>
<path d="M5190 8146 c0 -15 -3 -16 -15 -6 -12 10 -15 10 -15 0 0 -7 -7 -10
-16 -6 -14 5 -15 4 -5 -8 7 -8 24 -13 39 -11 15 2 30 4 33 4 4 1 10 8 13 17 4
9 2 13 -5 8 -6 -4 -15 0 -20 7 -7 11 -9 10 -9 -5z"/>
<path d="M5236 8144 c-9 -22 -8 -24 10 -24 10 0 14 -5 10 -16 -3 -8 -2 -12 4
-9 6 3 10 1 10 -4 0 -18 14 -12 32 14 17 22 15 55 -2 55 -5 0 -15 -7 -24 -15
-8 -8 -18 -15 -21 -15 -4 0 -5 7 -1 15 3 8 1 15 -3 15 -5 0 -12 -7 -15 -16z
m54 -34 c0 -5 -4 -10 -10 -10 -5 0 -10 5 -10 10 0 6 5 10 10 10 6 0 10 -4 10
-10z"/>
<path d="M2178 8091 c-98 -89 -217 -293 -253 -430 -47 -182 -44 -68 -51 -2819
-5 -1848 -3 -2614 5 -2682 6 -52 20 -131 31 -175 24 -93 94 -245 144 -311 20
-26 33 -51 29 -57 -3 -5 -2 -7 4 -4 5 4 23 -8 39 -25 16 -18 21 -26 11 -19
-13 10 -17 10 -17 1 0 -8 -6 -9 -17 -4 -10 4 -52 11 -93 16 -155 16 -170 19
-170 37 0 14 -9 15 -62 12 -48 -3 -57 -6 -38 -12 l25 -7 -27 -1 c-15 -1 -30 4
-33 9 -3 6 -15 10 -25 10 -10 0 -21 6 -24 13 -3 6 -3 1 0 -12 l6 -24 -36 23
c-21 12 -40 20 -43 16 -4 -3 -2 -6 4 -6 5 0 10 -7 10 -15 0 -12 -7 -14 -29
-10 -21 5 -28 3 -28 -9 0 -9 -4 -16 -10 -16 -13 0 -13 17 0 25 16 10 12 22
-10 28 -16 4 -20 0 -20 -17 0 -38 -20 -53 -65 -45 l-40 6 43 2 c24 0 41 5 37
10 -6 11 -64 9 -83 -2 -7 -5 -12 -3 -12 5 0 9 -3 9 -10 -2 -5 -8 -10 -11 -10
-7 0 4 -6 2 -14 -5 -10 -10 -11 -15 -2 -21 6 -6 3 -6 -8 -3 -11 4 -23 1 -27
-6 -7 -10 -11 -10 -21 0 -9 9 -9 12 1 12 19 0 43 27 31 35 -5 3 -10 1 -10 -5
0 -8 -10 -9 -29 -5 -17 3 -32 2 -36 -4 -11 -19 -55 -13 -56 7 0 15 -1 15 -8
-2 -7 -18 -8 -18 -14 -2 -4 9 -12 14 -17 11 -8 -5 -8 -11 0 -20 9 -10 7 -16
-9 -24 -22 -12 -28 -6 -25 26 1 21 -3 23 -42 23 -25 0 -44 -5 -47 -12 -3 -10
-7 -10 -20 1 -10 8 -27 11 -43 7 -17 -5 -23 -3 -19 4 4 6 -7 10 -29 10 -20 0
-36 4 -36 10 0 5 -17 12 -37 15 -57 9 -115 25 -145 41 -24 13 -26 13 -21 -6 4
-14 0 -20 -11 -20 -9 0 -13 6 -10 13 3 8 -1 14 -8 14 -9 0 -12 -11 -10 -33 4
-33 4 -33 -26 -25 -17 5 -34 6 -38 3 -4 -4 -4 2 0 13 16 41 17 49 5 30 -20
-32 -38 -47 -49 -40 -5 3 -10 -3 -10 -14 0 -17 7 -21 38 -22 20 0 31 -3 24 -6
-26 -10 -101 7 -106 25 -3 9 -4 5 -2 -10 2 -19 -1 -28 -10 -28 -8 0 -14 5 -14
10 0 6 -4 10 -10 10 -5 0 -10 -7 -10 -15 0 -8 -4 -15 -10 -15 -5 0 -10 6 -10
13 0 12 -49 21 -100 18 -53 -3 -105 1 -108 10 -5 13 -21 11 -38 -6 -21 -21
-34 -19 -34 6 0 18 -4 21 -29 16 -35 -7 -54 9 -40 34 7 14 5 21 -12 29 -49 27
-47 43 -49 -603 0 -332 2 -611 6 -621 6 -15 7 -15 20 1 10 14 15 16 25 5 22
-21 41 -15 34 11 -3 12 -3 18 2 12 12 -15 29 -16 58 -5 19 7 27 6 31 -3 6 -18
34 -18 34 0 0 9 8 12 23 8 81 -18 107 -22 107 -15 0 5 19 8 42 7 24 0 75 5
113 13 39 7 90 14 115 15 30 2 44 7 42 16 -2 10 0 10 11 1 10 -9 38 -10 93 -5
44 3 98 5 121 5 24 -1 43 2 43 7 0 5 10 9 23 10 85 3 120 9 127 20 5 8 18 12
34 9 15 -3 26 -1 26 6 0 6 4 5 9 -3 5 -8 11 -9 15 -3 3 6 37 14 74 17 37 4 71
10 77 13 5 3 24 5 42 3 17 -1 42 3 54 9 16 9 20 9 14 0 -5 -9 -3 -9 11 -2 20
10 95 23 129 23 11 0 22 3 25 8 5 7 234 46 330 55 25 3 81 11 125 19 44 8 83
13 87 11 4 -3 42 2 85 9 43 8 92 14 108 13 17 -1 35 2 40 5 13 9 60 17 170 29
50 6 115 15 145 21 105 20 283 52 355 64 17 3 68 10 115 15 47 6 139 22 205
35 66 13 158 29 205 35 47 6 135 18 195 26 61 8 137 17 170 20 93 8 457 62
580 85 145 27 151 28 211 33 76 6 144 16 189 26 55 12 196 38 275 50 36 5 79
12 95 15 17 2 62 9 100 15 39 6 84 15 100 20 17 5 86 16 155 25 69 9 152 21
185 26 33 5 71 11 85 13 14 2 54 9 90 15 124 20 196 29 310 41 63 7 120 15
125 20 6 4 30 10 55 13 62 8 224 32 350 52 58 9 146 23 195 30 200 30 325 70
325 105 0 7 -45 16 -125 25 -16 2 -61 8 -100 14 -38 6 -97 13 -130 17 -33 3
-67 10 -75 14 -26 13 -128 22 -305 26 -215 4 -287 9 -350 25 -27 7 -103 13
-168 13 -78 1 -120 5 -125 13 -4 6 -23 13 -42 15 -25 2 -10 7 55 17 50 7 106
17 125 22 60 15 -73 0 -190 -21 -58 -11 -154 -26 -215 -34 -121 -17 -241 -38
-352 -60 -39 -8 -147 -24 -240 -36 -92 -12 -213 -30 -268 -40 -55 -11 -163
-29 -240 -40 -77 -11 -196 -32 -265 -45 -69 -13 -181 -31 -250 -40 -69 -8
-174 -24 -235 -35 -60 -11 -166 -27 -235 -35 -69 -9 -186 -27 -260 -41 -305
-56 -523 -66 -641 -30 -104 32 -233 120 -289 197 -48 67 -118 211 -140 290
-53 189 -50 50 -49 2883 0 1692 4 2649 10 2685 38 213 194 530 305 619 16 12
25 22 22 22 -45 0 -288 86 -288 102 0 4 -11 8 -24 8 -15 0 -45 -19 -78 -49z
m-41 -2103 c-2 -13 -4 -5 -4 17 -1 22 1 32 4 23 2 -10 2 -28 0 -40z m-21 -174
c-9 -8 -11 -9 -6 -2 6 7 11 21 11 33 1 18 2 18 6 1 3 -10 -2 -25 -11 -32z
m-36 -38 c0 -2 -7 -7 -16 -10 -8 -3 -12 -2 -9 4 6 10 25 14 25 6z m-464 -4184
c-18 -16 -18 -16 -8 4 6 12 10 24 8 26 -1 3 2 2 8 -3 7 -6 4 -15 -8 -27z
m-823 21 c-7 -2 -19 -2 -25 0 -7 3 -2 5 12 5 14 0 19 -2 13 -5z m777 -23 c0
-5 -4 -10 -10 -10 -5 0 -10 5 -10 10 0 6 5 10 10 10 6 0 10 -4 10 -10z m-1200
-10 c0 -5 -4 -10 -10 -10 -5 0 -10 5 -10 10 0 6 5 10 10 10 6 0 10 -4 10 -10z
m1811 -47 c13 -16 12 -17 -3 -4 -10 7 -18 15 -18 17 0 8 8 3 21 -13z m109 -69
c0 -2 -9 0 -20 6 -11 6 -20 13 -20 16 0 2 9 0 20 -6 11 -6 20 -13 20 -16z"/>
<path d="M5053 8120 c-10 -15 -8 -19 10 -25 12 -4 25 -7 30 -6 4 1 7 -4 7 -10
0 -5 4 -8 9 -5 5 4 12 0 14 -6 4 -10 8 -9 16 2 10 13 17 9 46 -25 18 -21 32
-43 29 -47 -2 -4 5 -6 16 -5 24 2 24 4 5 23 -13 14 -13 17 0 30 8 9 15 21 15
27 -1 7 -12 -1 -25 -18 -30 -36 -33 -15 -4 26 11 16 16 29 11 29 -6 0 -12 -6
-15 -12 -3 -10 -7 -10 -19 0 -12 9 -18 10 -23 2 -4 -6 -13 -9 -21 -6 -8 3 -14
1 -14 -4 0 -6 -5 -10 -11 -10 -6 0 -8 9 -4 23 6 20 6 20 -6 5 -11 -12 -20 -14
-39 -7 -18 8 -21 12 -11 18 7 5 9 11 4 14 -5 3 -14 -3 -20 -13z m147 -45 c0
-9 -6 -12 -15 -9 -8 4 -12 10 -9 15 8 14 24 10 24 -6z"/>
<path d="M5650 8125 c1 -16 39 -82 40 -68 0 7 -9 27 -20 45 -11 18 -20 29 -20
23z"/>
<path d="M5590 8116 c0 -2 8 -10 18 -17 15 -13 16 -12 3 4 -13 16 -21 21 -21
13z"/>
<path d="M4783 8073 c0 -7 4 -13 9 -13 4 0 8 -5 8 -10 0 -6 5 -17 12 -24 10
-11 15 -11 25 0 7 7 13 20 13 28 0 9 8 16 17 16 13 0 14 3 5 12 -8 8 -15 8
-26 -1 -11 -9 -15 -9 -20 1 -3 7 -4 1 -1 -14 3 -17 1 -28 -5 -28 -6 0 -8 5 -5
10 3 6 1 10 -5 10 -7 0 -10 6 -7 13 3 8 0 14 -7 14 -7 0 -13 -6 -13 -14z"/>
<path d="M4730 8071 c0 -12 26 -32 32 -25 3 3 9 0 13 -6 3 -6 3 -10 -2 -9 -17
4 -56 -18 -45 -25 7 -4 12 -4 13 1 0 4 7 -5 15 -22 11 -22 14 -24 10 -7 -2 12
-1 22 4 22 4 0 10 10 13 22 7 25 -18 68 -26 46 -4 -10 -6 -10 -6 0 -1 13 -21
17 -21 3z"/>
<path d="M4447 8040 c3 -11 9 -20 14 -20 4 0 13 -9 19 -21 9 -15 8 -24 -1 -35
-10 -13 -10 -17 1 -24 20 -12 35 -3 53 35 14 30 14 34 0 39 -9 4 -21 -1 -29
-11 -14 -19 -15 -17 -18 25 -1 12 -24 32 -38 32 -3 0 -4 -9 -1 -20z m83 -40
c0 -5 -5 -10 -11 -10 -5 0 -7 5 -4 10 3 6 8 10 11 10 2 0 4 -4 4 -10z m-10
-26 c0 -3 -7 -12 -15 -20 -16 -17 -18 -14 -9 10 6 15 24 23 24 10z"/>
<path d="M5247 8044 c-11 -11 -8 -24 6 -24 6 0 21 -14 32 -30 19 -28 35 -39
35 -22 0 15 -65 83 -73 76z"/>
<path d="M4450 7996 c0 -8 4 -17 9 -21 6 -3 9 4 8 15 -1 23 -17 28 -17 6z"/>
<path d="M3890 7970 c0 -6 -7 -18 -15 -26 -8 -9 -15 -11 -15 -5 0 6 -6 11 -14
11 -8 0 -16 5 -18 12 -3 7 -7 6 -11 -5 -4 -11 -1 -17 8 -17 8 0 18 -7 23 -15
4 -9 15 -13 24 -10 20 8 41 52 28 60 -6 4 -10 1 -10 -5z"/>
<path d="M3855 7960 c3 -5 8 -10 11 -10 2 0 4 5 4 10 0 6 -5 10 -11 10 -5 0
-7 -4 -4 -10z"/>
<path d="M4780 7925 c0 -18 -16 -20 -23 -2 -3 9 -9 7 -23 -5 -10 -10 -14 -21
-10 -25 4 -4 12 -1 17 7 8 12 12 12 16 2 4 -10 9 -9 24 4 21 19 25 34 9 34 -5
0 -10 -7 -10 -15z"/>
<path d="M4660 7924 c0 -7 27 -34 34 -34 4 0 1 9 -6 20 -12 19 -28 27 -28 14z"/>
<path d="M3885 7911 c-6 -11 9 -23 19 -14 9 9 7 23 -3 23 -6 0 -12 -4 -16 -9z"/>
<path d="M4567 7893 c-12 -11 -8 -25 5 -17 8 5 9 2 5 -9 -6 -17 7 -24 17 -9 6
10 -19 43 -27 35z"/>
<path d="M4915 7651 c-24 -5 -31 -12 -33 -35 -8 -65 18 -94 72 -80 41 10 56
93 22 116 -12 9 -18 8 -61 -1z"/>
<path d="M6640 7474 c-19 -2 -89 -16 -155 -31 -103 -23 -143 -39 -283 -109
-90 -46 -189 -102 -220 -126 -109 -82 -227 -196 -275 -264 -123 -176 -142
-214 -212 -409 l-33 -90 -68 -25 c-92 -32 -150 -91 -209 -213 -85 -178 -105
-324 -66 -480 34 -132 91 -215 176 -259 33 -17 52 -20 116 -15 l77 5 7 -57 c4
-31 18 -89 31 -129 14 -42 24 -96 24 -130 0 -60 24 -126 53 -151 10 -7 17 -18
17 -24 0 -16 69 -89 176 -186 100 -91 193 -119 315 -94 29 5 30 7 14 15 -16 7
-15 7 5 3 14 -3 77 -8 140 -11 100 -6 138 -2 295 24 217 37 289 59 417 122
211 106 299 190 445 430 79 130 100 173 152 314 l37 99 61 18 c123 38 220 135
281 281 73 174 62 330 -37 549 -41 90 -121 146 -219 152 -37 2 -68 9 -76 18
-8 8 -19 43 -25 79 -33 193 -253 482 -441 579 -141 73 -268 111 -385 116 -55
2 -116 1 -135 -1z m330 -114 c252 -73 447 -258 558 -530 64 -159 67 -189 67
-675 l0 -440 -28 -100 c-52 -185 -125 -325 -256 -487 -92 -115 -248 -229 -378
-278 -30 -11 -147 -36 -261 -56 -175 -30 -223 -35 -312 -32 -282 12 -520 180
-649 460 -75 163 -79 182 -86 504 -8 376 6 691 35 794 26 92 78 204 153 330
59 101 172 225 257 283 25 17 72 51 105 77 97 76 277 149 404 165 25 3 47 8
50 11 14 15 268 -5 341 -26z m833 -832 c20 -22 52 -70 70 -107 29 -60 32 -75
36 -182 2 -83 -1 -133 -13 -178 -17 -65 -71 -171 -112 -221 -26 -30 -74 -45
-86 -27 -11 18 -9 180 6 467 8 140 12 258 10 262 -2 3 -1 13 2 22 10 25 43 11
87 -36z m-2289 -250 c4 -29 5 -201 4 -383 l-3 -330 -52 2 c-60 3 -122 31 -151
68 -12 14 -31 56 -44 93 -19 55 -23 87 -22 182 0 105 3 123 33 202 47 125 135
217 208 218 19 0 22 -7 27 -52z"/>
<path d="M6680 6570 c-432 -64 -492 -75 -556 -104 -102 -47 -199 -174 -250
-326 -21 -65 -24 -240 -4 -335 37 -182 171 -315 318 -315 83 0 816 99 902 121
98 26 235 207 275 364 20 80 20 291 0 370 -31 119 -120 228 -212 259 -65 22
-107 19 -473 -34z m391 -306 c36 -18 68 -82 69 -135 0 -99 -77 -199 -155 -199
-96 0 -174 133 -135 232 15 38 66 96 95 108 33 14 94 11 126 -6z m-736 -44 c3
-5 -2 -10 -12 -10 -11 0 -3 -9 22 -23 52 -29 85 -87 85 -150 0 -126 -110 -232
-203 -194 -67 28 -116 119 -103 190 11 56 69 128 133 164 65 36 69 37 78 23z"/>
<path d="M4926 7003 c-6 -14 -5 -15 5 -6 7 7 10 15 7 18 -3 3 -9 -2 -12 -12z"/>
<path d="M8540 5421 c0 -11 4 -22 9 -25 4 -3 6 6 3 19 -5 30 -12 33 -12 6z"/>
<path d="M8890 5400 c-47 -10 -102 -21 -124 -24 -21 -4 -36 -10 -33 -12 6 -6
243 35 272 47 34 14 -20 9 -115 -11z"/>
<path d="M8862 5010 c-57 -10 -108 -21 -115 -24 -19 -9 81 4 178 24 119 23 69
23 -63 0z"/>
<path d="M8943 4813 c9 -2 23 -2 30 0 6 3 -1 5 -18 5 -16 0 -22 -2 -12 -5z"/>
<path d="M8828 4803 c12 -2 32 -2 45 0 12 2 2 4 -23 4 -25 0 -35 -2 -22 -4z"/>
<path d="M7150 4634 c-63 -8 -189 -25 -280 -38 -91 -14 -205 -30 -255 -36 -49
-6 -137 -19 -195 -30 -586 -107 -758 -148 -849 -203 -80 -48 -202 -158 -248
-224 -64 -92 -161 -291 -184 -378 -19 -72 -21 -115 -26 -456 -6 -417 -6 -413
59 -463 63 -46 134 -50 293 -16 28 6 111 17 185 24 74 8 187 23 250 35 63 11
194 32 290 46 226 32 746 114 1020 161 118 20 247 40 285 45 113 13 322 64
417 101 15 6 36 24 47 42 18 29 19 54 20 391 0 272 -3 381 -14 446 -16 94 -50
200 -85 269 -46 91 -196 222 -292 256 -52 18 -223 44 -280 43 -24 -1 -95 -7
-158 -15z m393 -113 c110 -43 235 -161 254 -240 3 -14 24 -66 47 -116 l41 -90
0 -433 c0 -239 -2 -435 -6 -438 -13 -8 -186 -34 -239 -37 -54 -2 -55 -1 -58
26 -3 27 -5 27 -17 11 -11 -16 -14 -7 -20 66 -4 47 -5 184 -3 306 l3 220 35
70 c22 43 63 99 110 149 93 98 110 124 110 170 0 31 -3 35 -26 35 -121 0 -218
-105 -306 -330 l-33 -85 0 -327 c-1 -197 -5 -331 -10 -337 -12 -11 -654 -123
-865 -151 -373 -49 -673 -92 -752 -106 -99 -19 -133 -14 -142 18 -3 13 -6 166
-6 341 0 313 0 318 -25 390 -47 133 -129 222 -232 250 -36 9 -43 15 -43 37 0
30 43 105 104 181 60 76 196 167 301 201 44 15 150 38 235 52 85 14 263 43
395 65 132 22 326 51 430 65 105 15 251 35 325 45 177 26 314 23 393 -8z
m-2185 -698 c6 -21 34 -63 62 -93 114 -122 123 -167 114 -572 -7 -300 -8 -307
-28 -311 -12 -3 -69 -11 -129 -18 -103 -12 -108 -12 -135 8 -27 20 -27 21 -29
149 -2 172 15 594 28 668 14 79 46 162 72 186 28 27 32 26 45 -17z"/>
<path d="M6889 4138 c-11 -13 -25 -33 -30 -46 -12 -31 -12 -654 1 -686 5 -14
21 -33 35 -42 35 -23 68 -7 95 46 20 39 21 52 17 368 -2 220 -7 334 -15 348
-21 40 -70 45 -103 12z"/>
<path d="M6334 4060 c-51 -26 -73 -65 -112 -200 -63 -219 -131 -447 -146 -489
-22 -61 -20 -94 7 -119 52 -49 115 -12 138 79 7 27 18 54 24 59 13 11 222 40
240 34 7 -3 25 -29 39 -58 40 -82 81 -90 140 -27 27 28 28 35 23 84 -3 30 -15
75 -26 100 -12 25 -33 83 -47 128 -55 173 -135 363 -167 397 -36 37 -57 40
-113 12z m76 -346 c17 -42 34 -91 37 -109 5 -32 5 -32 -42 -38 -26 -4 -63 -7
-82 -7 -38 0 -38 0 4 124 12 38 23 78 23 88 0 43 30 13 60 -58z"/>
<path d="M2274 2655 c0 -55 1 -76 3 -47 2 29 2 74 0 100 -2 26 -3 2 -3 -53z"/>
<path d="M2271 2395 c-6 -231 -6 -415 0 -415 4 0 10 -19 13 -42 4 -24 14 -56
22 -73 8 -16 12 -21 8 -10 -20 69 -27 149 -33 385 -5 163 -9 223 -10 155z"/>
<path d="M5455 2469 c-44 -4 -134 -17 -200 -29 -66 -12 -181 -30 -255 -40
-133 -17 -393 -59 -540 -86 l-75 -14 65 6 c36 3 151 18 255 34 105 15 237 34
295 40 58 6 132 18 166 26 33 7 131 23 216 34 85 11 166 24 179 29 l24 10 -25
-1 c-14 0 -61 -4 -105 -9z"/>
<path d="M6985 2374 c-141 -22 -301 -55 -230 -47 33 3 89 7 125 8 74 2 166 21
195 41 23 16 27 16 -90 -2z"/>
<path d="M6648 2313 c6 -2 18 -2 25 0 6 3 1 5 -13 5 -14 0 -19 -2 -12 -5z"/>
<path d="M6598 2303 c7 -3 16 -2 19 1 4 3 -2 6 -13 5 -11 0 -14 -3 -6 -6z"/>
<path d="M4333 2293 c9 -2 25 -2 35 0 9 3 1 5 -18 5 -19 0 -27 -2 -17 -5z"/>
<path d="M6425 2279 c-55 -10 -179 -30 -275 -44 -96 -14 -240 -36 -320 -50
-80 -14 -217 -34 -305 -45 -88 -11 -198 -27 -245 -35 -47 -8 -168 -26 -270
-40 -102 -15 -226 -35 -276 -45 -50 -10 -155 -28 -235 -39 -215 -31 -439 -65
-679 -105 -392 -65 -653 -105 -810 -125 -85 -11 -189 -25 -230 -32 -41 -6 -87
-9 -102 -7 -15 3 -28 1 -28 -3 0 -10 42 -34 52 -31 5 1 7 -4 5 -10 -1 -8 8
-12 24 -10 15 2 33 -3 40 -10 20 -19 34 -21 131 -26 65 -3 102 1 143 13 30 10
55 21 55 25 0 4 42 17 93 30 81 21 117 24 295 24 160 1 205 4 211 15 7 11 9
11 13 0 4 -12 11 -11 41 3 32 15 63 20 232 32 28 2 63 7 79 11 19 5 27 4 23
-2 -4 -6 3 -9 16 -7 12 2 83 11 157 20 74 9 167 22 205 30 39 8 142 26 230 39
88 14 196 32 240 40 44 9 145 25 225 36 80 11 172 26 205 34 33 7 120 21 192
31 75 10 127 21 120 26 -6 4 4 5 23 2 19 -3 53 -1 75 5 l40 11 -48 -5 c-43 -4
-47 -3 -33 10 8 8 22 15 30 15 9 0 16 7 16 15 0 8 3 15 8 16 4 0 16 3 27 5 11
3 74 10 140 16 66 6 126 15 134 21 7 6 19 12 27 13 21 3 71 48 67 60 -4 12
100 39 205 54 96 14 202 38 167 38 -16 0 -75 -8 -130 -19z m-772 -256 c-7 -2
-19 -2 -25 0 -7 3 -2 5 12 5 14 0 19 -2 13 -5z"/>
<path d="M4253 2283 c9 -2 23 -2 30 0 6 3 -1 5 -18 5 -16 0 -22 -2 -12 -5z"/>
<path d="M4178 2273 c7 -3 16 -2 19 1 4 3 -2 6 -13 5 -11 0 -14 -3 -6 -6z"/>
<path d="M6238 2103 c7 -3 16 -2 19 1 4 3 -2 6 -13 5 -11 0 -14 -3 -6 -6z"/>
<path d="M6098 2083 c7 -3 16 -2 19 1 4 3 -2 6 -13 5 -11 0 -14 -3 -6 -6z"/>
<path d="M5968 2063 c7 -3 16 -2 19 1 4 3 -2 6 -13 5 -11 0 -14 -3 -6 -6z"/>
<path d="M2500 2040 c0 -5 5 -10 10 -10 6 0 10 5 10 10 0 6 -4 10 -10 10 -5 0
-10 -4 -10 -10z"/>
<path d="M7510 2025 c-69 -13 -117 -23 -107 -24 28 -2 212 28 238 38 34 14 12
11 -131 -14z"/>
<path d="M7348 1993 c7 -3 16 -2 19 1 4 3 -2 6 -13 5 -11 0 -14 -3 -6 -6z"/>
<path d="M7095 1960 c-27 -5 -90 -14 -140 -21 -49 -6 -84 -14 -77 -16 13 -5
303 35 311 42 6 7 -34 4 -94 -5z"/>
<path d="M6775 1910 c-42 -11 -1 -11 50 -1 34 7 35 9 10 9 -16 0 -43 -4 -60
-8z"/>
<path d="M6693 1893 c9 -2 25 -2 35 0 9 3 1 5 -18 5 -19 0 -27 -2 -17 -5z"/>
<path d="M6638 1883 c6 -2 18 -2 25 0 6 3 1 5 -13 5 -14 0 -19 -2 -12 -5z"/>
<path d="M6508 1863 c6 -2 18 -2 25 0 6 3 1 5 -13 5 -14 0 -19 -2 -12 -5z"/>
<path d="M2321 1810 c0 -8 6 -26 14 -40 8 -14 14 -19 14 -10 0 8 -6 26 -14 40
-8 14 -14 19 -14 10z"/>
<path d="M6153 1803 c9 -2 25 -2 35 0 9 3 1 5 -18 5 -19 0 -27 -2 -17 -5z"/>
<path d="M2350 1738 c0 -13 42 -98 51 -104 6 -3 -2 18 -17 47 -27 55 -34 67
-34 57z"/>
<path d="M608 1703 c6 -2 18 -2 25 0 6 3 1 5 -13 5 -14 0 -19 -2 -12 -5z"/>
<path d="M3708 1703 c6 -2 18 -2 25 0 6 3 1 5 -13 5 -14 0 -19 -2 -12 -5z"/>
<path d="M612 1665 c0 -16 2 -22 5 -12 2 9 2 23 0 30 -3 6 -5 -1 -5 -18z"/>
<path d="M140 1634 c0 -8 5 -12 10 -9 6 4 8 11 5 16 -9 14 -15 11 -15 -7z"/>
<path d="M1098 1643 c7 -3 16 -2 19 1 4 3 -2 6 -13 5 -11 0 -14 -3 -6 -6z"/>
<path d="M285 1620 c-13 -5 -14 -9 -5 -9 8 0 24 4 35 9 13 5 14 9 5 9 -8 0
-24 -4 -35 -9z"/>
<path d="M2416 1607 c3 -10 9 -15 12 -12 3 3 0 11 -7 18 -10 9 -11 8 -5 -6z"/>
<path d="M2450 1539 c0 -9 7 -22 15 -29 19 -16 19 0 0 26 -12 16 -14 16 -15 3z"/>
<path d="M2495 1470 c20 -23 29 -21 19 4 -3 9 -13 16 -22 16 -13 0 -12 -3 3
-20z"/>
<path d="M2600 1406 c0 -9 82 -48 87 -42 3 3 -6 10 -21 16 -15 5 -36 15 -47
20 -10 6 -19 8 -19 6z"/>
<path d="M0 61 c0 -55 2 -61 20 -61 19 0 21 5 18 57 -2 46 -7 59 -20 61 -16 3
-18 -5 -18 -57z"/>
<path d="M88 23 c12 -2 30 -2 40 0 9 3 -1 5 -23 4 -22 0 -30 -2 -17 -4z"/>
<path d="M88 3 c6 -2 18 -2 25 0 6 3 1 5 -13 5 -14 0 -19 -2 -12 -5z"/>
</g>
</svg>
