<?xml version="1.0" encoding="UTF-8"?>
<!DOCTYPE svg PUBLIC "-//W3C//DTD SVG 1.1//EN" "http://www.w3.org/Graphics/SVG/1.1/DTD/svg11.dtd">
<svg xmlns="http://www.w3.org/2000/svg" version="1.1" width="80px" height="80px" style="shape-rendering:geometricPrecision; text-rendering:geometricPrecision; image-rendering:optimizeQuality; fill-rule:evenodd; clip-rule:evenodd" xmlns:xlink="http://www.w3.org/1999/xlink">
<g><path style="opacity:1" fill="#e5f1ff" d="M -0.5,-0.5 C 26.1667,-0.5 52.8333,-0.5 79.5,-0.5C 79.5,26.1667 79.5,52.8333 79.5,79.5C 52.8333,79.5 26.1667,79.5 -0.5,79.5C -0.5,52.8333 -0.5,26.1667 -0.5,-0.5 Z"/></g>
<g><path style="opacity:1" fill="#3860ff" d="M 48.5,37.5 C 47.9619,41.5236 47.2952,45.5236 46.5,49.5C 45.5,49.5 44.5,49.5 43.5,49.5C 44.3755,45.5384 45.0422,41.5384 45.5,37.5C 46.1515,36.9094 46.8182,36.2427 47.5,35.5C 48.2975,35.9569 48.6309,36.6236 48.5,37.5 Z"/></g>
<g><path style="opacity:1" fill="#7392ff" d="M 41.5,34.5 C 42.1515,35.0906 42.8182,35.7573 43.5,36.5C 45.1727,34.9137 47.1727,34.2471 49.5,34.5C 49.7373,35.791 49.404,36.791 48.5,37.5C 48.6309,36.6236 48.2975,35.9569 47.5,35.5C 46.8182,36.2427 46.1515,36.9094 45.5,37.5C 44.8333,37.8333 44.1667,38.1667 43.5,38.5C 43.19,37.2617 42.69,37.2617 42,38.5C 41.51,37.2068 41.3433,35.8734 41.5,34.5 Z"/></g>
<g><path style="opacity:1" fill="#3863ff" d="M 41.5,34.5 C 41.3433,35.8734 41.51,37.2068 42,38.5C 42.69,37.2617 43.19,37.2617 43.5,38.5C 43.8808,40.9418 43.2141,41.6085 41.5,40.5C 40.0678,43.3273 39.4012,46.3273 39.5,49.5C 38.5,49.5 37.5,49.5 36.5,49.5C 37.4651,45.5214 37.9651,41.5214 38,37.5C 34.9755,41.7268 32.8089,46.3935 31.5,51.5C 30.1906,48.3478 30.5239,45.3478 32.5,42.5C 31.336,42.8346 30.0026,42.8346 28.5,42.5C 30.3279,41.2048 32.3279,40.2048 34.5,39.5C 36.0429,36.6095 38.3762,34.9429 41.5,34.5 Z"/></g>
</svg>
