<?xml version="1.0" encoding="UTF-8"?>
<!DOCTYPE svg PUBLIC "-//W3C//DTD SVG 1.1//EN" "http://www.w3.org/Graphics/SVG/1.1/DTD/svg11.dtd">
<svg xmlns="http://www.w3.org/2000/svg" version="1.1" width="80px" height="80px" style="shape-rendering:geometricPrecision; text-rendering:geometricPrecision; image-rendering:optimizeQuality; fill-rule:evenodd; clip-rule:evenodd" xmlns:xlink="http://www.w3.org/1999/xlink">
<g><path style="opacity:1" fill="#e5f1ff" d="M -0.5,-0.5 C 26.1667,-0.5 52.8333,-0.5 79.5,-0.5C 79.5,26.1667 79.5,52.8333 79.5,79.5C 52.8333,79.5 26.1667,79.5 -0.5,79.5C -0.5,52.8333 -0.5,26.1667 -0.5,-0.5 Z"/></g>
<g><path style="opacity:1" fill="#3b63ff" d="M 32.5,36.5 C 31.5041,36.4142 30.6708,36.7476 30,37.5C 29.1264,42.6197 28.4597,42.6197 28,37.5C 31.9927,33.6218 35.8261,33.6218 39.5,37.5C 37.4558,39.0683 37.1224,40.9017 38.5,43C 38.0216,45.2256 37.355,47.3923 36.5,49.5C 35.2801,49.1131 34.6135,48.2798 34.5,47C 35.606,45.1178 35.606,43.2844 34.5,41.5C 32.9462,43.9329 32.2796,46.5995 32.5,49.5C 31.5,49.5 30.5,49.5 29.5,49.5C 29.8674,44.9922 30.8674,40.6589 32.5,36.5 Z"/></g>
<g><path style="opacity:1" fill="#315eff" d="M 44.5,34.5 C 46.1992,34.3398 47.8659,34.5065 49.5,35C 50.731,36.1827 50.731,37.3493 49.5,38.5C 48.5207,35.223 47.1873,34.8897 45.5,37.5C 47.0985,39.9124 48.4318,42.4124 49.5,45C 48.4718,49.2059 45.8052,50.5392 41.5,49C 39.6335,45.3591 40.6335,43.6924 44.5,44C 42.9926,44.8373 42.4926,46.0039 43,47.5C 44,48.8333 45,48.8333 46,47.5C 46.6667,46.1667 46.6667,44.8333 46,43.5C 42.3672,40.8323 41.8672,37.8323 44.5,34.5 Z"/></g>
<g><path style="opacity:1" fill="#d7e6ff" d="M 32.5,36.5 C 33.5676,35.5655 34.901,35.2322 36.5,35.5C 36.7692,37.4286 36.2692,39.0953 35,40.5C 34.8784,38.563 34.045,37.2297 32.5,36.5 Z"/></g>
</svg>
